<svg width="680" height="879" viewBox="0 0 680 879" fill="none" xmlns="http://www.w3.org/2000/svg">
<g filter="url(#filter0_d)">
<rect x="4" width="672" height="871" rx="5" fill="#FAFAFA"/>
</g>
<path d="M439.334 231.68C429.307 231.68 420.294 233.76 412.294 237.92L416.134 256L417.894 256.8C421.094 254.56 424.614 252.8 428.454 251.52C432.294 250.24 436.24 249.6 440.294 249.6C457.254 249.6 465.734 260.747 465.734 283.04C465.734 295.093 463.547 304.16 459.174 310.24C454.694 316.213 448.187 319.2 439.654 319.2C435.707 319.2 431.654 318.613 427.494 317.44C423.227 316.16 419.387 314.453 415.974 312.32L414.054 313.44L415.814 331.84C423.92 335.573 432.454 337.44 441.414 337.44C456.774 337.44 468.507 332.96 476.614 324C484.614 315.04 488.614 302.187 488.614 285.44C488.614 268.373 484.347 255.147 475.814 245.76C467.174 236.373 455.014 231.68 439.334 231.68ZM379.252 303.2L378.132 336H399.412L398.292 305.12L399.253 225.28L377.972 223.68L379.252 303.2ZM356.581 305.28L357.381 263.04L336.421 261.28L337.381 303.2L336.421 336H357.701L356.581 305.28ZM346.501 225.12C343.195 225.12 340.635 226.08 338.821 228C336.901 229.92 335.941 232.587 335.941 236C335.941 239.627 336.955 242.507 338.981 244.64C341.008 246.773 343.781 247.84 347.301 247.84C350.821 247.84 353.541 246.88 355.461 244.96C357.275 243.04 358.181 240.32 358.181 236.8C358.181 233.28 357.168 230.453 355.141 228.32C353.008 226.187 350.128 225.12 346.501 225.12ZM285.742 260.16C282.222 260.16 278.756 260.533 275.342 261.28C271.822 261.92 268.729 262.88 266.062 264.16L269.582 281.12L271.342 281.92C276.782 278.933 281.636 277.44 285.902 277.44C290.809 277.44 294.596 279.2 297.262 282.72C299.929 286.24 301.262 291.253 301.262 297.76C301.262 305.227 299.822 310.933 296.942 314.88C294.062 318.827 289.956 320.8 284.622 320.8C279.822 320.8 274.489 319.467 268.622 316.8L267.022 318.08L269.102 334.56C275.502 336.587 282.062 337.6 288.782 337.6C299.022 337.6 307.022 334.293 312.782 327.68C318.542 320.96 321.422 311.627 321.422 299.68C321.422 287.307 318.276 277.653 311.982 270.72C305.689 263.68 296.942 260.16 285.742 260.16ZM234.565 303.2L233.445 336H254.725L253.605 305.12L254.565 225.28L233.285 223.68L234.565 303.2ZM212.965 295.2C207.205 304.48 198.565 316.907 187.045 332.48L187.205 334.72C190.938 335.573 194.938 336.213 199.205 336.64C203.365 337.173 205.925 337.493 206.885 337.6L209.125 336.64C218.512 323.413 226.618 310.24 233.445 297.12V295.68L214.885 269.28L211.045 261.6H188.645L212.965 295.2ZM450.371 449.6C450.265 445.76 451.065 442.827 452.771 440.8C454.478 438.773 456.985 437.76 460.291 437.76C465.091 437.76 470.211 440.053 475.651 444.64L475.971 463.2L474.851 496H496.131L495.011 465.12L495.971 385.28L474.691 383.68L475.491 432.16H474.531C468.665 426.827 462.211 422.987 455.171 420.64C447.065 420.64 440.931 422.507 436.771 426.24C432.505 429.867 430.425 435.147 430.531 442.08L431.011 463.36L430.211 496H451.491L450.371 449.6ZM353.859 461.44L397.059 461.76C396.099 475.093 389.325 481.76 376.739 481.76C370.125 481.76 362.765 479.893 354.659 476.16L352.899 477.28L356.099 493.12C364.205 496.107 371.832 497.6 378.979 497.6C390.712 497.6 399.939 494.187 406.659 487.36C413.272 480.533 416.579 471.093 416.579 459.04C416.579 447.093 413.325 437.653 406.819 430.72C400.312 423.68 391.512 420.16 380.419 420.16C370.925 420.16 363.619 422.773 358.499 428C353.272 433.12 350.659 440.32 350.659 449.6C350.659 452.053 350.925 455.147 351.459 458.88L353.859 461.44ZM369.219 447.2C369.219 442.933 370.179 439.733 372.099 437.6C374.019 435.36 376.845 434.24 380.579 434.24C384.739 434.24 388.205 435.627 390.979 438.4C393.752 441.067 395.619 444.96 396.579 450.08L369.539 449.44L369.219 447.2ZM294.87 421.44C293.91 421.44 292.577 421.547 290.87 421.76V441.44L293.11 442.24C294.923 441.493 296.897 441.12 299.03 441.12C305.217 441.12 310.817 445.12 315.83 453.12V463.2L314.71 496H335.99L334.71 465.28L335.67 423.04L315.51 421.28L315.67 435.84H314.39C309.163 426.24 302.657 421.44 294.87 421.44ZM222.765 461.44L265.965 461.76C265.005 475.093 258.232 481.76 245.645 481.76C239.032 481.76 231.672 479.893 223.565 476.16L221.805 477.28L225.005 493.12C233.112 496.107 240.738 497.6 247.885 497.6C259.618 497.6 268.845 494.187 275.565 487.36C282.178 480.533 285.485 471.093 285.485 459.04C285.485 447.093 282.232 437.653 275.725 430.72C269.218 423.68 260.418 420.16 249.325 420.16C239.832 420.16 232.525 422.773 227.405 428C222.178 433.12 219.565 440.32 219.565 449.6C219.565 452.053 219.832 455.147 220.365 458.88L222.765 461.44ZM238.125 447.2C238.125 442.933 239.085 439.733 241.005 437.6C242.925 435.36 245.752 434.24 249.485 434.24C253.645 434.24 257.112 435.627 259.885 438.4C262.658 441.067 264.525 444.96 265.485 450.08L238.445 449.44L238.125 447.2ZM181.056 392L186.976 458.08L198.976 459.68L201.216 457.6L202.496 392.96L200.576 390.56L183.616 389.44L181.056 392ZM194.816 474.4C191.51 474.4 188.95 475.36 187.136 477.28C185.216 479.2 184.256 481.867 184.256 485.28C184.256 488.907 185.27 491.787 187.296 493.92C189.323 496.053 192.096 497.12 195.616 497.12C199.136 497.12 201.856 496.16 203.776 494.24C205.59 492.32 206.496 489.6 206.496 486.08C206.496 482.56 205.483 479.733 203.456 477.6C201.323 475.467 198.443 474.4 194.816 474.4Z" fill="black"/>
<defs>
<filter id="filter0_d" x="0" y="0" width="680" height="879" filterUnits="userSpaceOnUse" color-interpolation-filters="sRGB">
<feFlood flood-opacity="0" result="BackgroundImageFix"/>
<feColorMatrix in="SourceAlpha" type="matrix" values="0 0 0 0 0 0 0 0 0 0 0 0 0 0 0 0 0 0 127 0"/>
<feOffset dy="4"/>
<feGaussianBlur stdDeviation="2"/>
<feColorMatrix type="matrix" values="0 0 0 0 0 0 0 0 0 0 0 0 0 0 0 0 0 0 0.25 0"/>
<feBlend mode="normal" in2="BackgroundImageFix" result="effect1_dropShadow"/>
<feBlend mode="normal" in="SourceGraphic" in2="effect1_dropShadow" result="shape"/>
</filter>
</defs>
</svg>
