<svg width="87" height="87" viewBox="0 0 87 87" fill="none" xmlns="http://www.w3.org/2000/svg">
<circle cx="43.5" cy="43.5" r="43" fill="#B8D4FF" stroke="#B8D4FF"/>
<path d="M59.5596 19.0615C57.4331 19.0615 55.3066 19.8867 53.6562 21.5371L21.5371 53.6562L21.4102 54.291L19.1885 65.4629L18.5537 68.4463L21.5371 67.8115L32.709 65.5898L33.3438 65.4629L65.4629 33.3438C68.7637 30.043 68.7637 24.8379 65.4629 21.5371C63.8125 19.8867 61.686 19.0615 59.5596 19.0615ZM59.5596 22.9336C60.5831 22.9336 61.6146 23.4017 62.6064 24.3936C64.5822 26.3693 64.5822 28.5116 62.6064 30.4873L61.1465 31.8838L55.1162 25.8535L56.5127 24.3936C57.5045 23.4017 58.536 22.9336 59.5596 22.9336ZM52.2598 28.71L58.29 34.7402L33.7246 59.3057C32.3916 56.7031 30.2969 54.6084 27.6943 53.2754L52.2598 28.71ZM25.0918 56.5762C27.5277 57.5601 29.4399 59.4723 30.4238 61.9082L23.7588 63.2412L25.0918 56.5762Z" fill="white"/>
</svg>
