<?xml version="1.0" encoding="utf-8"?>
<!-- Generator: Adobe Illustrator 24.1.0, SVG Export Plug-In . SVG Version: 6.00 Build 0)  -->
<svg version="1.1" id="_x2014_ÎÓÈ_1" xmlns="http://www.w3.org/2000/svg" xmlns:xlink="http://www.w3.org/1999/xlink" x="0px"
	 y="0px" viewBox="0 0 1133.86 1190.55" style="enable-background:new 0 0 1133.86 1190.55;" xml:space="preserve">
<style type="text/css">
	.st0{fill:url(#SVGID_1_);}
	.st1{fill:url(#SVGID_2_);}
	.st2{fill:#FBF3CB;}
	.st3{fill:#B17F48;}
	.st4{fill:url(#SVGID_3_);}
	.st5{fill:url(#SVGID_4_);}
	.st6{fill:url(#SVGID_5_);}
	.st7{fill:url(#SVGID_6_);}
	.st8{fill:url(#SVGID_7_);}
	.st9{fill:#A86B47;}
	.st10{fill:url(#SVGID_8_);}
	.st11{fill:url(#SVGID_9_);}
	.st12{fill:#F5E27C;}
	.st13{fill:url(#SVGID_10_);}
	.st14{fill:url(#SVGID_11_);}
	.st15{fill:url(#SVGID_12_);}
	.st16{fill:url(#SVGID_13_);}
	.st17{fill:url(#SVGID_14_);}
	.st18{fill:url(#SVGID_15_);}
	.st19{fill:url(#SVGID_16_);}
	.st20{fill:url(#SVGID_17_);}
	.st21{fill:url(#SVGID_18_);}
	.st22{fill:url(#SVGID_19_);}
	.st23{fill:url(#SVGID_20_);}
	.st24{fill:url(#SVGID_21_);}
	.st25{fill:url(#SVGID_22_);}
	.st26{fill:url(#SVGID_23_);}
	.st27{fill:url(#SVGID_24_);}
	.st28{fill:url(#SVGID_25_);}
	.st29{fill:url(#SVGID_26_);}
	.st30{fill:url(#SVGID_27_);}
</style>
<g>
	
		<linearGradient id="SVGID_1_" gradientUnits="userSpaceOnUse" x1="536.5165" y1="849.2244" x2="536.9313" y2="935.3643" gradientTransform="matrix(0.342 0.9397 -0.9397 0.342 715.0873 -5.236)">
		<stop  offset="0" style="stop-color:#7D4E24"/>
		<stop  offset="0.0347" style="stop-color:#8C5C2E"/>
		<stop  offset="0.0911" style="stop-color:#9D6C3A"/>
		<stop  offset="0.1613" style="stop-color:#A87742"/>
		<stop  offset="0.2598" style="stop-color:#AF7D47"/>
		<stop  offset="0.5333" style="stop-color:#B17F48"/>
	</linearGradient>
	<path class="st0" d="M95.83,812.74c3.4-2.28,7.72-4.69,12.55-7.12L96.3,772.45c-5.37,1.19-10.35,2.01-14.54,2.26
		c-0.57-0.03-0.91,0.23-1.33,0.6c-5.1,4.38-45.63,35.15-59.37,41.91c-0.29,0.11-0.78,0.68-0.98,1.07c-0.05,0.11,0.14,0.19,0.41,0.09
		c0.21-0.08,74.33-26.85,74.33-26.85c-0.33-2.29,3.78-4.29,4.77-1.13c1.03,2.75-3.14,4.12-4.47,2.17c0,0-74.01,27.1-74.15,27.14
		c-0.23,0.07-0.35,0.28-0.26,0.34c0.29,0.19,0.75,0.31,0.75,0.31c14.86-3.66,66.07-7.2,72.77-7.14
		C94.79,813.23,95.29,813.18,95.83,812.74z"/>
	
		<linearGradient id="SVGID_2_" gradientUnits="userSpaceOnUse" x1="510.1749" y1="854.1209" x2="562.5974" y2="854.1209" gradientTransform="matrix(0.342 0.9397 -0.9397 0.342 715.0873 -5.236)">
		<stop  offset="0" style="stop-color:#B17F48"/>
		<stop  offset="0.103" style="stop-color:#D9B53D"/>
		<stop  offset="0.1271" style="stop-color:#DBB740"/>
		<stop  offset="0.1444" style="stop-color:#E0BD49"/>
		<stop  offset="0.1597" style="stop-color:#E8C859"/>
		<stop  offset="0.1736" style="stop-color:#F4D76F"/>
		<stop  offset="0.1818" style="stop-color:#FDE380"/>
		<stop  offset="0.1995" style="stop-color:#F7DA6F"/>
		<stop  offset="0.2448" style="stop-color:#EAC647"/>
		<stop  offset="0.2809" style="stop-color:#E2BA2F"/>
		<stop  offset="0.303" style="stop-color:#DFB526"/>
		<stop  offset="0.3313" style="stop-color:#E1B82C"/>
		<stop  offset="0.3706" style="stop-color:#E5C13E"/>
		<stop  offset="0.4164" style="stop-color:#ECD05C"/>
		<stop  offset="0.4667" style="stop-color:#F6E485"/>
		<stop  offset="0.5" style="stop-color:#FDF3A4"/>
		<stop  offset="0.7455" style="stop-color:#DEAE00"/>
		<stop  offset="0.8364" style="stop-color:#D9B53D"/>
		<stop  offset="0.975" style="stop-color:#B17F48"/>
	</linearGradient>
	<path class="st1" d="M97.12,818.21c22.16-16.13,81.41-36.15,81.41-36.15l-13.59-37.33c0,0-57.9,24.16-85.86,24.61
		c-0.64-0.08-1.01,0.24-1.47,0.68c-5.47,5.23-41.52,39.48-56.56,47.21c-0.4,0.15-1.01,0.66-0.99,1.07l74.48-27.09
		c-0.06-2.77,4.29-4.05,5.41-0.99c1.12,3.07-3.04,4.89-4.77,2.72L20.7,820.06c0.24,0.32,0.98,0.39,1.43,0.26
		c16.48-3.75,65.68-2.05,73.22-1.57C95.98,818.78,96.54,818.75,97.12,818.21z"/>
	<path class="st2" d="M116.18,807.22c0.27-0.13,3.76-1.82,4.04-1.95l-20.18-13.36c-0.11,0.29-0.25,0.54-0.41,0.77L116.18,807.22z"/>
	<path class="st3" d="M70.79,801.82l-0.9,0.33L94.6,818.7c0,0,0.33,0.05,0.75,0.04c0.07,0,0.15,0,0.22-0.01
		C95.98,818.7,70.79,801.82,70.79,801.82z"/>
	
		<linearGradient id="SVGID_3_" gradientUnits="userSpaceOnUse" x1="510.1781" y1="859.3683" x2="562.6005" y2="859.3683" gradientTransform="matrix(0.342 0.9397 -0.9397 0.342 715.0873 -5.236)">
		<stop  offset="0" style="stop-color:#F5E151"/>
		<stop  offset="0.0364" style="stop-color:#FBF3CB"/>
		<stop  offset="0.1697" style="stop-color:#F7E896"/>
		<stop  offset="0.4788" style="stop-color:#FBF3CB"/>
		<stop  offset="0.5212" style="stop-color:#F9ECA9"/>
		<stop  offset="0.562" style="stop-color:#F8E791"/>
		<stop  offset="0.5995" style="stop-color:#F7E482"/>
		<stop  offset="0.6303" style="stop-color:#F7E37D"/>
		<stop  offset="0.7515" style="stop-color:#FFD926"/>
		<stop  offset="0.8606" style="stop-color:#F6E689"/>
		<stop  offset="1" style="stop-color:#F2D926"/>
	</linearGradient>
	<path class="st4" d="M97.12,818.21c4.96-3.61,14.98-8.96,22.57-12.69l-19.87-13.18c-0.66,1.39-3.38,2.19-4.66,0.6L90,794.82
		l-19.67,7.16l25.02,16.76C95.98,818.78,96.54,818.75,97.12,818.21z"/>
	<path class="st2" d="M98.54,788.65l7.02-23.67c-0.33,0.08-3.89,0.95-4.22,1.03l-3.51,22.49C98.12,788.56,98.35,788.64,98.54,788.65
		z"/>
	<path class="st3" d="M78.67,769.71c-0.64-0.08-1.01,0.24-1.47,0.68l-7.8,29.96l0.96-0.35L78.67,769.71z"/>
	
		<linearGradient id="SVGID_4_" gradientUnits="userSpaceOnUse" x1="510.1749" y1="860.8477" x2="562.5979" y2="860.8477" gradientTransform="matrix(0.342 0.9397 -0.9397 0.342 715.0873 -5.236)">
		<stop  offset="0" style="stop-color:#F5E151"/>
		<stop  offset="0.1758" style="stop-color:#FBF3BA"/>
		<stop  offset="0.2391" style="stop-color:#FDEB7C"/>
		<stop  offset="0.3212" style="stop-color:#FFE026"/>
		<stop  offset="0.4788" style="stop-color:#FBF3CB"/>
		<stop  offset="0.9316" style="stop-color:#F7E87D"/>
		<stop  offset="1" style="stop-color:#F2D926"/>
	</linearGradient>
	<path class="st5" d="M98.15,788.56l3.76-22.68c-8.47,2.01-16.43,3.35-22.83,3.45c-0.64-0.08-1.01,0.24-1.47,0.68l-7.73,30.16
		l19.49-7.09l5.17-1.88C94.49,789.3,96.51,788.15,98.15,788.56z"/>
	
		<linearGradient id="SVGID_5_" gradientUnits="userSpaceOnUse" x1="498.5722" y1="254.4736" x2="575.2329" y2="254.4736" gradientTransform="matrix(0.342 0.9397 -0.9397 0.342 715.0873 -5.236)">
		<stop  offset="0" style="stop-color:#1A1A1A"/>
		<stop  offset="0.1495" style="stop-color:#0D0D0D"/>
		<stop  offset="0.2976" style="stop-color:#404040"/>
		<stop  offset="0.4182" style="stop-color:#1A1A1A"/>
		<stop  offset="0.4848" style="stop-color:#121212"/>
		<stop  offset="0.5758" style="stop-color:#0D0D0D"/>
		<stop  offset="0.7455" style="stop-color:#000000"/>
		<stop  offset="0.8424" style="stop-color:#000000"/>
		<stop  offset="1" style="stop-color:#1A1A1A"/>
	</linearGradient>
	<path class="st6" d="M377.8,723.65c-1.31-3.55-21.5-58.37-22.38-61.49c-0.88-3.11-0.1-5.88,5.41-7.89
		c5.52-2.01,578.72-210.64,578.72-210.64l26.19,71.94c0,0-574.14,209.21-578.49,210.55C382.89,727.48,379.11,727.2,377.8,723.65z"/>
	
		<linearGradient id="SVGID_6_" gradientUnits="userSpaceOnUse" x1="495.5777" y1="-39.0127" x2="577.5234" y2="-39.0127" gradientTransform="matrix(0.342 0.9397 -0.9397 0.342 715.0873 -5.236)">
		<stop  offset="0" style="stop-color:#1A1A1A"/>
		<stop  offset="0.1495" style="stop-color:#0D0D0D"/>
		<stop  offset="0.2976" style="stop-color:#404040"/>
		<stop  offset="0.4182" style="stop-color:#1A1A1A"/>
		<stop  offset="0.4848" style="stop-color:#121212"/>
		<stop  offset="0.5758" style="stop-color:#0D0D0D"/>
		<stop  offset="0.7455" style="stop-color:#000000"/>
		<stop  offset="0.8424" style="stop-color:#000000"/>
		<stop  offset="1" style="stop-color:#1A1A1A"/>
	</linearGradient>
	<path class="st7" d="M783.22,578.11c-1.85-5.09-22.18-60.56-23.62-64.9c-1.44-4.34,0.22-7.35,5.94-9.43
		c4.69-1.71,226.3-82.33,306.15-111.39c17.48-6.36,46.69,70.16,28.35,76.84c-80.85,29.44-300.58,109.42-305.51,111.17
		C787.79,582.91,784.5,581.81,783.22,578.11z"/>
	
		<linearGradient id="SVGID_7_" gradientUnits="userSpaceOnUse" x1="573.5233" y1="-212.9301" x2="500.186" y2="-212.9301" gradientTransform="matrix(0.342 0.9397 -0.9397 0.342 715.0873 -5.236)">
		<stop  offset="0" style="stop-color:#F2D926"/>
		<stop  offset="0.1276" style="stop-color:#FFF787"/>
		<stop  offset="0.3394" style="stop-color:#F2BD0A"/>
		<stop  offset="0.7" style="stop-color:#FDF3B3"/>
		<stop  offset="0.7803" style="stop-color:#FAE375"/>
		<stop  offset="0.8606" style="stop-color:#F7D133"/>
		<stop  offset="1" style="stop-color:#E0A848"/>
	</linearGradient>
	<path class="st8" d="M1073.7,397.93c16.17-5.88,28.8-1.77,28.8-1.77l19.21,52.79c0,0-6.56,10.08-23.52,16.26L1073.7,397.93z"/>
	<path class="st9" d="M1089.69,434.08l-2.15-5.92c-0.79-2.18-3.73-3.11-6.55-2.08l-247.54,90.1c-2.82,1.03-17.37,8.2-16.58,10.38
		l2.21,6.08c0.79,2.18,16.57-1.62,19.39-2.65l247.54-90.1C1088.84,438.86,1090.49,436.26,1089.69,434.08z M886.48,508.79
		c-2.26,0.82-14.7,4.33-15.12,3.19l-1.16-3.2c-0.42-1.15,11.38-6.42,13.64-7.25l187.46-68.23l2.58,7.28L886.48,508.79z"/>
	
		<linearGradient id="SVGID_8_" gradientUnits="userSpaceOnUse" x1="551.3163" y1="-57.7599" x2="526.0641" y2="-57.7599" gradientTransform="matrix(0.342 0.9397 -0.9397 0.342 715.0873 -5.236)">
		<stop  offset="0" style="stop-color:#F2D926"/>
		<stop  offset="0.2306" style="stop-color:#F2BD0A"/>
		<stop  offset="0.5529" style="stop-color:#FDF3B3"/>
		<stop  offset="0.7067" style="stop-color:#FAE375"/>
		<stop  offset="0.8606" style="stop-color:#F7D133"/>
		<stop  offset="1" style="stop-color:#E0A848"/>
	</linearGradient>
	<path class="st10" d="M1094.62,433.96l-3.23-8.88c-1.19-3.27-4.52-5.06-7.44-4L828.38,514.1c-2.92,1.06-17.66,9.24-16.47,12.51
		l3.32,9.13c1.19,3.27,17.77,0.15,20.69-0.91l255.57-93.02C1094.42,440.74,1095.82,437.23,1094.62,433.96z M884.93,511.42
		c-2.33,0.85-15.33,4.05-15.96,2.33l-1.75-4.79c-0.62-1.72,11.41-7.57,13.74-8.42L1072,431.01l3.96,10.88L884.93,511.42z"/>
	
		<linearGradient id="SVGID_9_" gradientUnits="userSpaceOnUse" x1="549.432" y1="81.0393" x2="526.0676" y2="81.0393" gradientTransform="matrix(0.342 0.9397 -0.9397 0.342 715.0873 -5.236)">
		<stop  offset="0" style="stop-color:#DFB526"/>
		<stop  offset="0.2472" style="stop-color:#D8A70A"/>
		<stop  offset="0.5157" style="stop-color:#FDF3A4"/>
		<stop  offset="0.6519" style="stop-color:#F1D966"/>
		<stop  offset="0.8606" style="stop-color:#DEAE00"/>
		<stop  offset="1" style="stop-color:#B17F48"/>
	</linearGradient>
	<path class="st11" d="M828.38,514.1c-2.92,1.06-17.66,9.24-16.47,12.51l3.32,9.13c1.19,3.27,17.77,0.15,20.69-0.91L828.38,514.1z"
		/>
	<path class="st12" d="M1072,431.01l3.96,10.88l13.93,0.5l1.61-0.59c2.92-1.06,4.32-4.57,3.13-7.84l-3.23-8.88
		c-1.19-3.27-4.52-5.06-7.44-4l-1.61,0.59L1072,431.01z"/>
	
		<linearGradient id="SVGID_10_" gradientUnits="userSpaceOnUse" x1="566.183" y1="-227.8286" x2="508.7067" y2="-227.8286" gradientTransform="matrix(0.342 0.9397 -0.9397 0.342 715.0873 -5.236)">
		<stop  offset="0" style="stop-color:#F5E151"/>
		<stop  offset="0.1697" style="stop-color:#F7E896"/>
		<stop  offset="0.3394" style="stop-color:#F2D926"/>
		<stop  offset="0.7631" style="stop-color:#FBF3CB"/>
		<stop  offset="0.8409" style="stop-color:#F8EA8D"/>
		<stop  offset="0.8606" style="stop-color:#F7E87D"/>
		<stop  offset="1" style="stop-color:#F2D926"/>
	</linearGradient>
	<path class="st13" d="M1102.52,396.2c1.24-0.45,4.2,5.3,4.2,5.3l15.06,41.38c0,0,1.24,5.58-0.06,6.05L1102.52,396.2z"/>
	
		<linearGradient id="SVGID_11_" gradientUnits="userSpaceOnUse" x1="578.0688" y1="-206.4346" x2="494.11" y2="-206.4346" gradientTransform="matrix(0.342 0.9397 -0.9397 0.342 715.0873 -5.236)">
		<stop  offset="0" style="stop-color:#DFB526"/>
		<stop  offset="0.1697" style="stop-color:#F5E27C"/>
		<stop  offset="0.3455" style="stop-color:#D8A70A"/>
		<stop  offset="0.6693" style="stop-color:#FDF3A4"/>
		<stop  offset="0.7448" style="stop-color:#F1D966"/>
		<stop  offset="0.8606" style="stop-color:#DEAE00"/>
		<stop  offset="1" style="stop-color:#B17F48"/>
	</linearGradient>
	<path class="st14" d="M1071.69,392.4c5.32-1.94,10.31-2.67,14.6-2.78l26.55,72.93c-3.35,2.4-7.8,4.94-13.12,6.88L1071.69,392.4z"/>
	
		<linearGradient id="SVGID_12_" gradientUnits="userSpaceOnUse" x1="576.0668" y1="-214.6941" x2="496.6058" y2="-214.6941" gradientTransform="matrix(0.342 0.9397 -0.9397 0.342 715.0873 -5.236)">
		<stop  offset="0" style="stop-color:#F5E151"/>
		<stop  offset="0.1697" style="stop-color:#F7E896"/>
		<stop  offset="0.3394" style="stop-color:#F2D926"/>
		<stop  offset="0.6693" style="stop-color:#FBF3CB"/>
		<stop  offset="0.8219" style="stop-color:#F8EA8D"/>
		<stop  offset="0.8606" style="stop-color:#F7E87D"/>
		<stop  offset="1" style="stop-color:#F2D926"/>
	</linearGradient>
	<path class="st15" d="M1086.3,389.65c0.67-0.24,1.58,0.45,2.5,1.48l25.11,69.08c-0.11,1.16-0.41,2.09-1.08,2.34L1086.3,389.65z"/>
	<g>
		
			<linearGradient id="SVGID_13_" gradientUnits="userSpaceOnUse" x1="579.3349" y1="120.2374" x2="492.6439" y2="120.2374" gradientTransform="matrix(0.342 0.9397 -0.9397 0.342 715.0873 -5.236)">
			<stop  offset="0" style="stop-color:#F5E151"/>
			<stop  offset="0.1697" style="stop-color:#F7E896"/>
			<stop  offset="0.3394" style="stop-color:#F2D926"/>
			<stop  offset="0.6693" style="stop-color:#FBF3CB"/>
			<stop  offset="0.8219" style="stop-color:#F8EA8D"/>
			<stop  offset="0.8606" style="stop-color:#F7E87D"/>
			<stop  offset="1" style="stop-color:#F2D926"/>
		</linearGradient>
		<polygon class="st16" points="799.12,580.16 798.33,580.45 769.38,500.92 770.17,500.63 773.34,500.94 801.36,577.92 		"/>
		
			<linearGradient id="SVGID_14_" gradientUnits="userSpaceOnUse" x1="578.8984" y1="130.0287" x2="493.6902" y2="130.6506" gradientTransform="matrix(0.342 0.9397 -0.9397 0.342 715.0873 -5.236)">
			<stop  offset="0" style="stop-color:#DFB526"/>
			<stop  offset="0.1697" style="stop-color:#F5E27C"/>
			<stop  offset="0.3455" style="stop-color:#D8A70A"/>
			<stop  offset="0.6693" style="stop-color:#FDF3A4"/>
			<stop  offset="0.7448" style="stop-color:#F1D966"/>
			<stop  offset="0.8606" style="stop-color:#DEAE00"/>
			<stop  offset="1" style="stop-color:#B17F48"/>
		</linearGradient>
		<path class="st17" d="M779.88,580.53c-1.91-5.26-22.9-62.57-24.4-67.04c-1.5-4.48-0.05-7.49,5.24-9.42
			c0.69-0.25,9.45-3.44,9.45-3.44l28.95,79.53c0,0-7.83,2.85-8.56,3.1C784.33,585.59,781.21,584.35,779.88,580.53z"/>
	</g>
	
		<linearGradient id="SVGID_15_" gradientUnits="userSpaceOnUse" x1="576.8764" y1="548.0616" x2="495.8905" y2="548.0616" gradientTransform="matrix(0.342 0.9397 -0.9397 0.342 715.0873 -5.236)">
		<stop  offset="0" style="stop-color:#F5E151"/>
		<stop  offset="0.1697" style="stop-color:#F7E896"/>
		<stop  offset="0.3394" style="stop-color:#F2D926"/>
		<stop  offset="0.6693" style="stop-color:#FBF3CB"/>
		<stop  offset="0.8219" style="stop-color:#F8EA8D"/>
		<stop  offset="0.8606" style="stop-color:#F7E87D"/>
		<stop  offset="1" style="stop-color:#F2D926"/>
	</linearGradient>
	<polygon class="st18" points="396.41,724.16 395.16,724.61 368.12,650.31 369.37,649.86 372.66,649.97 398.88,722 	"/>
	
		<linearGradient id="SVGID_16_" gradientUnits="userSpaceOnUse" x1="576.47" y1="557.3044" x2="496.8667" y2="557.8854" gradientTransform="matrix(0.342 0.9397 -0.9397 0.342 715.0873 -5.236)">
		<stop  offset="0" style="stop-color:#DFB526"/>
		<stop  offset="0.1697" style="stop-color:#F5E27C"/>
		<stop  offset="0.3455" style="stop-color:#D8A70A"/>
		<stop  offset="0.6992" style="stop-color:#FDF3A4"/>
		<stop  offset="0.763" style="stop-color:#F1D966"/>
		<stop  offset="0.8606" style="stop-color:#DEAE00"/>
		<stop  offset="1" style="stop-color:#B17F48"/>
	</linearGradient>
	<path class="st19" d="M378.09,724.62c-1.79-4.91-21.39-58.44-22.8-62.63c-1.4-4.18-0.04-7,4.91-8.8c0.64-0.23,9.16-3.34,9.16-3.34
		l27.04,74.3c0,0-7.65,2.78-8.32,3.02C382.25,729.35,379.33,728.19,378.09,724.62z"/>
	
		<linearGradient id="SVGID_17_" gradientUnits="userSpaceOnUse" x1="504.1365" y1="659.5769" x2="569.5698" y2="659.5769" gradientTransform="matrix(0.342 0.9397 -0.9397 0.342 715.0873 -5.236)">
		<stop  offset="0" style="stop-color:#1A1A1A"/>
		<stop  offset="0.1495" style="stop-color:#0D0D0D"/>
		<stop  offset="0.2976" style="stop-color:#404040"/>
		<stop  offset="0.4182" style="stop-color:#1A1A1A"/>
		<stop  offset="0.4848" style="stop-color:#121212"/>
		<stop  offset="0.5758" style="stop-color:#0D0D0D"/>
		<stop  offset="0.7455" style="stop-color:#000000"/>
		<stop  offset="0.8424" style="stop-color:#000000"/>
		<stop  offset="1" style="stop-color:#1A1A1A"/>
	</linearGradient>
	<path class="st20" d="M181.95,731.36c57.65-17.91,173.47-69.19,173.47-69.19l22.38,61.49c0,0-123.37,36.58-177.49,58.16
		L181.95,731.36z"/>
	
		<linearGradient id="SVGID_18_" gradientUnits="userSpaceOnUse" x1="564.6317" y1="754.526" x2="508.3417" y2="754.7521" gradientTransform="matrix(0.342 0.9397 -0.9397 0.342 715.0873 -5.236)">
		<stop  offset="0" style="stop-color:#F5E151"/>
		<stop  offset="0.1697" style="stop-color:#F7E896"/>
		<stop  offset="0.4724" style="stop-color:#F2D926"/>
		<stop  offset="0.8258" style="stop-color:#FBF3CB"/>
		<stop  offset="0.9101" style="stop-color:#F8EA8D"/>
		<stop  offset="0.9316" style="stop-color:#F7E87D"/>
		<stop  offset="1" style="stop-color:#F2D926"/>
	</linearGradient>
	<polygon class="st21" points="198.19,783.7 197.44,783.98 178.19,731.09 178.89,730.83 181.96,731.38 200.36,781.92 	"/>
	
		<linearGradient id="SVGID_19_" gradientUnits="userSpaceOnUse" x1="565.0461" y1="764.4313" x2="507.3442" y2="764.4313" gradientTransform="matrix(0.342 0.9397 -0.9397 0.342 715.0873 -5.236)">
		<stop  offset="0" style="stop-color:#DFB526"/>
		<stop  offset="0.1697" style="stop-color:#F5E27C"/>
		<stop  offset="0.3455" style="stop-color:#D8A70A"/>
		<stop  offset="0.8057" style="stop-color:#FDF3A4"/>
		<stop  offset="0.8401" style="stop-color:#F1D966"/>
		<stop  offset="0.893" style="stop-color:#DEAE00"/>
		<stop  offset="1" style="stop-color:#B17F48"/>
	</linearGradient>
	<path class="st22" d="M181.68,790.22l-19.5-53.58c4.54-0.91,11.34-3,16.71-5.81l19.29,52.84
		C192.52,785.04,185.82,788.1,181.68,790.22z"/>
	
		<linearGradient id="SVGID_20_" gradientUnits="userSpaceOnUse" x1="508.0328" y1="782.2452" x2="565.0461" y2="782.2452" gradientTransform="matrix(0.342 0.9397 -0.9397 0.342 715.0873 -5.236)">
		<stop  offset="0" style="stop-color:#1A1A1A"/>
		<stop  offset="0.1495" style="stop-color:#0D0D0D"/>
		<stop  offset="0.2976" style="stop-color:#404040"/>
		<stop  offset="0.4182" style="stop-color:#1A1A1A"/>
		<stop  offset="0.4848" style="stop-color:#121212"/>
		<stop  offset="0.5758" style="stop-color:#0D0D0D"/>
		<stop  offset="0.7455" style="stop-color:#000000"/>
		<stop  offset="0.8424" style="stop-color:#000000"/>
		<stop  offset="1" style="stop-color:#1A1A1A"/>
	</linearGradient>
	<path class="st23" d="M181.68,790.22l-19.5-53.58c-1.09,9.38-14.22,13.21-14.22,13.21l14.23,39.09
		C162.18,788.94,174.92,784.53,181.68,790.22z"/>
	
		<linearGradient id="SVGID_21_" gradientUnits="userSpaceOnUse" x1="510.1749" y1="859.271" x2="562.5979" y2="859.271" gradientTransform="matrix(0.342 0.9397 -0.9397 0.342 715.0873 -5.236)">
		<stop  offset="0" style="stop-color:#F5E151"/>
		<stop  offset="0.1758" style="stop-color:#FBF3BA"/>
		<stop  offset="0.2391" style="stop-color:#FDEB7C"/>
		<stop  offset="0.3212" style="stop-color:#FFE026"/>
		<stop  offset="0.4788" style="stop-color:#FBF3CB"/>
		<stop  offset="0.9316" style="stop-color:#F7E87D"/>
		<stop  offset="1" style="stop-color:#F2D926"/>
	</linearGradient>
	<path class="st24" d="M98.15,788.56l6.84-23.44c-8.51,2.21-19.51,4.11-25.91,4.21c-0.64-0.08-1.01,0.24-1.47,0.68l-7.73,30.16
		l19.49-7.09l5.17-1.88C94.49,789.3,96.51,788.15,98.15,788.56z"/>
	
		<linearGradient id="SVGID_22_" gradientUnits="userSpaceOnUse" x1="510.1781" y1="859.3683" x2="562.6005" y2="859.3683" gradientTransform="matrix(0.342 0.9397 -0.9397 0.342 715.0873 -5.236)">
		<stop  offset="0" style="stop-color:#F5E151"/>
		<stop  offset="0.0364" style="stop-color:#FBF3CB"/>
		<stop  offset="0.1697" style="stop-color:#F7E896"/>
		<stop  offset="0.4788" style="stop-color:#FBF3CB"/>
		<stop  offset="0.5212" style="stop-color:#F9ECA9"/>
		<stop  offset="0.562" style="stop-color:#F8E791"/>
		<stop  offset="0.5995" style="stop-color:#F7E482"/>
		<stop  offset="0.6303" style="stop-color:#F7E37D"/>
		<stop  offset="0.7515" style="stop-color:#FFD926"/>
		<stop  offset="0.8606" style="stop-color:#F6E689"/>
		<stop  offset="1" style="stop-color:#F2D926"/>
	</linearGradient>
	<path class="st25" d="M97.12,818.21c4.96-3.61,14.98-8.96,22.57-12.69l-19.87-13.18c-0.66,1.39-3.38,2.19-4.66,0.6L90,794.82
		l-19.67,7.16l25.02,16.76C95.98,818.78,96.54,818.75,97.12,818.21z"/>
	
		<linearGradient id="SVGID_23_" gradientUnits="userSpaceOnUse" x1="510.1749" y1="859.271" x2="562.5979" y2="859.271" gradientTransform="matrix(0.342 0.9397 -0.9397 0.342 715.0873 -5.236)">
		<stop  offset="0" style="stop-color:#F5E151"/>
		<stop  offset="0.1758" style="stop-color:#FBF3BA"/>
		<stop  offset="0.2391" style="stop-color:#FDEB7C"/>
		<stop  offset="0.3212" style="stop-color:#FFE026"/>
		<stop  offset="0.4788" style="stop-color:#FBF3CB"/>
		<stop  offset="0.9316" style="stop-color:#F7E87D"/>
		<stop  offset="1" style="stop-color:#F2D926"/>
	</linearGradient>
	<path class="st26" d="M98.15,788.56l6.84-23.44c-8.51,2.21-19.51,4.11-25.91,4.21c-0.64-0.08-1.01,0.24-1.47,0.68l-7.73,30.16
		l19.49-7.09l5.17-1.88C94.49,789.3,96.51,788.15,98.15,788.56z"/>
	<g>
		
			<linearGradient id="SVGID_24_" gradientUnits="userSpaceOnUse" x1="508.8456" y1="857.7286" x2="563.1803" y2="858.1868" gradientTransform="matrix(0.342 0.9397 -0.9397 0.342 715.0873 -5.236)">
			<stop  offset="0" style="stop-color:#B17F48"/>
			<stop  offset="0.103" style="stop-color:#D9B53D"/>
			<stop  offset="0.1289" style="stop-color:#DBB740"/>
			<stop  offset="0.1476" style="stop-color:#E0BD49"/>
			<stop  offset="0.164" style="stop-color:#E8C859"/>
			<stop  offset="0.1791" style="stop-color:#F4D76F"/>
			<stop  offset="0.1879" style="stop-color:#FDE380"/>
			<stop  offset="0.2082" style="stop-color:#F7DA6F"/>
			<stop  offset="0.2603" style="stop-color:#EAC647"/>
			<stop  offset="0.3018" style="stop-color:#E2BA2F"/>
			<stop  offset="0.3273" style="stop-color:#DFB526"/>
			<stop  offset="0.3521" style="stop-color:#E1B82C"/>
			<stop  offset="0.3865" style="stop-color:#E5C13E"/>
			<stop  offset="0.4267" style="stop-color:#ECD05C"/>
			<stop  offset="0.4708" style="stop-color:#F6E485"/>
			<stop  offset="0.5" style="stop-color:#FDF3A4"/>
			<stop  offset="0.7455" style="stop-color:#DEAE00"/>
			<stop  offset="0.8364" style="stop-color:#FDE380"/>
			<stop  offset="0.975" style="stop-color:#B17F48"/>
		</linearGradient>
		<path class="st27" d="M84.92,786.97c3.68-1.34,7.69-0.43,10.78,2.04c0.07-0.02,0.22-0.14,0.45-0.24c0.12-0.05,0.29-0.11,0.36-0.14
			c-0.74-1.28-1.97-2.25-3.49-2.74l0.22-5.54c1.43,1.58,2.58,3.43,3.31,5.27c0.05,0.13,0.1,0.25,0.15,0.37
			c0.29,0.8,0.5,1.6,0.64,2.4c0,0.03,0.01,0.06,0.01,0.09c0.17-0.01,0.23,0.01,0.46,0.02c-0.12-0.82-0.33-1.7-0.65-2.56
			c-0.01-0.03-0.02-0.05-0.03-0.08c0-0.01-0.01-0.02-0.01-0.03c-0.94-2.58-2.1-4.97-3.48-7.13l8.55-5.31l-0.31-0.2
			c-2.41-1.52-5.26-2.26-8.28-2.14l0.14-3.48l-0.54,0.15l-0.15,3.84l0.27-0.02c2.87-0.16,5.6,0.48,7.92,1.85l-7.87,4.89
			c-2.76-4.18-6.35-7.39-10.71-9.13l-1.27,0.07c0.13,0.05,0.26,0.11,0.39,0.16c-1.41,1.57-2.63,3.28-3.62,5.07
			c-0.64,0.07-1.15,0.16-1.8,0.36l-0.15,0.58c0.58-0.19,1.07-0.3,1.65-0.38c-3.01,5.76-3.79,12.41-1.61,18.62l0.09,0.27l0.04,0.1
			c0.29,0.79,0.65,1.5,1.06,2.12c0.22,0.35,0.47,0.68,0.74,1.01l0.53-0.19c-0.3-0.35-0.57-0.71-0.81-1.09
			c-0.4-0.59-0.74-1.28-1.01-2.03l-0.04-0.1l-0.08-0.26c-2.17-6.19-1.35-12.81,1.71-18.52c1.1-0.1,2.24-0.05,3.4,0.19
			c0.57,0.12,1.12,0.33,1.64,0.61c-2.2,0.71-3.88,2.73-4.17,5.4c-0.1,0.95,0.14,1.92,0.69,2.72c0.55,0.8,1.34,1.35,2.23,1.53
			c0.28,0.06,0.56,0.04,0.82-0.05c0.23,0.18,0.49,0.32,0.77,0.38c1.83,0.38,3.49-0.91,3.71-2.88c0.13-1.18-0.02-2.38-0.42-3.49
			c-0.22-0.62-0.53-1.21-0.91-1.76c-0.42-0.62-0.92-1.15-1.47-1.59c0.54-0.06,1.11-0.04,1.69,0.08c2.32,0.48,4.49,1.88,6.29,3.71
			l-0.25,6.44l0.18,0.05c1.3,0.38,2.38,1.15,3.1,2.16c-3.18-2.45-7.26-3.34-11.02-1.97c-3.14,1.14-4.65,4.92-3.37,8.43
			c0.12,0.33,0.29,0.63,0.48,0.9l0.46-0.17c-0.2-0.26-0.38-0.56-0.5-0.89C80.63,791.52,82.02,788.03,84.92,786.97z M85.86,777.89
			c0.99,1.44,1.43,3.17,1.23,4.88c-0.19,1.69-1.62,2.8-3.19,2.47c-0.12-0.02-0.23-0.07-0.34-0.13c0,0,0,0,0.01,0
			c0.37-0.29,0.61-0.73,0.67-1.24c0.06-0.57-0.31-1.13-0.83-1.27l0,0c-0.01,0-0.02,0-0.02,0c-0.01,0-0.02-0.01-0.03-0.01l0,0.01
			c-0.25-0.04-0.49,0.02-0.69,0.17c-0.21,0.17-0.35,0.41-0.38,0.71c-0.06,0.51,0.08,1.03,0.37,1.46c0,0,0,0,0,0.01
			c-0.11,0.01-0.23,0.01-0.35-0.02c-0.76-0.16-1.44-0.63-1.92-1.32c-0.47-0.69-0.68-1.52-0.59-2.34c0.29-2.65,2.05-4.61,4.3-5.13
			C84.78,776.58,85.37,777.17,85.86,777.89z M83.15,784.77c-0.04-0.05-0.08-0.09-0.12-0.14c-0.22-0.32-0.31-0.7-0.27-1.08
			c0.02-0.15,0.09-0.29,0.2-0.38c0.11-0.08,0.24-0.11,0.37-0.09c0.28,0.07,0.48,0.37,0.45,0.68c-0.04,0.38-0.21,0.7-0.49,0.92
			C83.24,784.72,83.19,784.75,83.15,784.77z M86.5,775.59c-0.8-0.16-1.59-0.16-2.33-0.01c-0.69-0.45-1.44-0.77-2.24-0.94
			c-1.07-0.22-2.13-0.29-3.16-0.22c0.97-1.71,2.14-3.33,3.49-4.82c4.02,1.81,7.69,5.17,10.51,9.08l-0.02,0.51
			C90.95,777.42,88.8,776.07,86.5,775.59z M93.28,779.39c0.28,0.41,0.55,0.82,0.81,1.24c-0.26-0.32-0.54-0.63-0.82-0.93
			L93.28,779.39z"/>
		
			<linearGradient id="SVGID_25_" gradientUnits="userSpaceOnUse" x1="509.3022" y1="861.0458" x2="563.0464" y2="861.4991" gradientTransform="matrix(0.342 0.9397 -0.9397 0.342 715.0873 -5.236)">
			<stop  offset="0" style="stop-color:#B17F48"/>
			<stop  offset="0.103" style="stop-color:#D9B53D"/>
			<stop  offset="0.1289" style="stop-color:#DBB740"/>
			<stop  offset="0.1476" style="stop-color:#E0BD49"/>
			<stop  offset="0.164" style="stop-color:#E8C859"/>
			<stop  offset="0.1791" style="stop-color:#F4D76F"/>
			<stop  offset="0.1879" style="stop-color:#FDE380"/>
			<stop  offset="0.2082" style="stop-color:#F7DA6F"/>
			<stop  offset="0.2603" style="stop-color:#EAC647"/>
			<stop  offset="0.3018" style="stop-color:#E2BA2F"/>
			<stop  offset="0.3273" style="stop-color:#DFB526"/>
			<stop  offset="0.3521" style="stop-color:#E1B82C"/>
			<stop  offset="0.3865" style="stop-color:#E5C13E"/>
			<stop  offset="0.4267" style="stop-color:#ECD05C"/>
			<stop  offset="0.4708" style="stop-color:#F6E485"/>
			<stop  offset="0.5" style="stop-color:#FDF3A4"/>
			<stop  offset="0.7455" style="stop-color:#DEAE00"/>
			<stop  offset="0.8364" style="stop-color:#FDE380"/>
			<stop  offset="0.975" style="stop-color:#B17F48"/>
		</linearGradient>
		<path class="st28" d="M90.52,802.36c3.76-1.37,6.32-4.67,7.18-8.6c-0.17,0.05-0.38,0.05-0.49,0.05c-0.87,3.69-3.31,6.77-6.86,8.06
			c-2.89,1.05-6.21-0.72-7.39-3.96c-0.06-0.16-0.1-0.32-0.13-0.48l-0.43,0.16c0.03,0.16,0.08,0.32,0.14,0.48
			C83.8,801.58,87.39,803.5,90.52,802.36z"/>
		
			<linearGradient id="SVGID_26_" gradientUnits="userSpaceOnUse" x1="508.8398" y1="857.6385" x2="563.3141" y2="858.098" gradientTransform="matrix(0.342 0.9397 -0.9397 0.342 715.0873 -5.236)">
			<stop  offset="0" style="stop-color:#B17F48"/>
			<stop  offset="0.103" style="stop-color:#D9B53D"/>
			<stop  offset="0.1289" style="stop-color:#DBB740"/>
			<stop  offset="0.1476" style="stop-color:#E0BD49"/>
			<stop  offset="0.164" style="stop-color:#E8C859"/>
			<stop  offset="0.1791" style="stop-color:#F4D76F"/>
			<stop  offset="0.1879" style="stop-color:#FDE380"/>
			<stop  offset="0.2082" style="stop-color:#F7DA6F"/>
			<stop  offset="0.2603" style="stop-color:#EAC647"/>
			<stop  offset="0.3018" style="stop-color:#E2BA2F"/>
			<stop  offset="0.3273" style="stop-color:#DFB526"/>
			<stop  offset="0.3521" style="stop-color:#E1B82C"/>
			<stop  offset="0.3865" style="stop-color:#E5C13E"/>
			<stop  offset="0.4267" style="stop-color:#ECD05C"/>
			<stop  offset="0.4708" style="stop-color:#F6E485"/>
			<stop  offset="0.5" style="stop-color:#FDF3A4"/>
			<stop  offset="0.7455" style="stop-color:#DEAE00"/>
			<stop  offset="0.8364" style="stop-color:#FDE380"/>
			<stop  offset="0.975" style="stop-color:#B17F48"/>
		</linearGradient>
		<path class="st29" d="M98.64,817.15c2.84-3.96,3.95-8.53,3.64-13.51l9.41-1.35c-0.88,2.5-2.52,4.72-4.77,6.43l-0.22,0.17
			l2.07,2.28l0.48-0.26l-1.8-1.98c2.34-1.84,4.02-4.21,4.86-6.87l0.11-0.35l-10.19,1.46c-0.16-1.95-0.52-3.97-1.1-6.04
			c-0.16-0.76-0.37-1.49-0.62-2.18c-0.28-0.78-0.62-1.5-1-2.15c-0.12,0.13-0.32,0.3-0.39,0.35c0.33,0.61,0.62,1.24,0.87,1.91
			c0.28,0.76,0.52,1.53,0.72,2.3c0.31,1.47,0.44,3.03,0.36,4.58l-3.72-4.09c0.83-1.32,1.15-2.82,0.93-4.25
			c-0.1,0.05-0.38,0.12-0.52,0.15c0.2,1.36-0.13,2.78-0.96,4.02l-0.1,0.15l4.32,4.75c-0.22,2.49-0.99,4.89-2.42,6.71
			c-0.36,0.46-0.78,0.84-1.24,1.15c0.26-1.35,0.14-2.78-0.34-4.1c-0.4-1.09-1.04-2.11-1.92-2.95c-0.69-0.66-1.56-1.01-2.45-0.97
			c-0.89,0.03-1.68,0.44-2.24,1.15c-0.18,0.23-0.29,0.5-0.35,0.79c-0.25,0.1-0.48,0.26-0.66,0.49c-0.56,0.71-0.82,1.64-0.72,2.61
			c0.1,0.97,0.53,1.87,1.22,2.53c1.94,1.85,4.52,2.32,6.66,1.46c-0.21,0.54-0.5,1.05-0.86,1.52c-0.83,1.06-1.71,1.88-2.72,2.52
			c-5.29-2.17-9.68-6.05-12.22-11.32c-0.36-0.64-0.67-1.29-0.9-1.93l0,0c-0.33-0.89-0.51-1.75-0.56-2.57l-0.01-0.38
			c-0.01-0.18-0.03-0.6-0.03-0.65l-0.53,0.2c0,0.16,0.01,0.32,0.03,0.48l0,0.02c0.01,0.97,0.21,2.01,0.6,3.08l0,0
			c0.24,0.67,0.56,1.34,0.93,1.98c2.45,5.08,6.75,9.07,12.21,11.37c-0.27,0.15-0.56,0.3-0.85,0.43l0.5,0.33
			c0.33-0.16,0.65-0.33,0.96-0.52c0.28,0.11,0.55,0.22,0.84,0.32c1.22,0.43,2.48,0.77,3.76,1.03c-0.22,0.29-0.45,0.57-0.7,0.85
			L98.64,817.15z M101.52,802.4c0.02-0.21,0.03-0.43,0.04-0.64c0.03,0.25,0.05,0.51,0.07,0.76L101.52,802.4z M90.24,809.7
			c-0.6-0.57-0.97-1.34-1.05-2.18c-0.08-0.83,0.14-1.63,0.62-2.24c0.08-0.09,0.16-0.17,0.26-0.23c0,0,0,0.01,0,0.01
			c0.05,0.52,0.28,1,0.65,1.35c0.21,0.2,0.47,0.31,0.74,0.29c0.25-0.01,0.48-0.12,0.64-0.31l0,0c0.01-0.01,0.01-0.02,0.02-0.02
			c0-0.01,0.01-0.01,0.02-0.02l0,0c0.15-0.21,0.22-0.47,0.19-0.75c-0.03-0.29-0.16-0.57-0.37-0.76c-0.37-0.36-0.83-0.54-1.31-0.52
			c0,0,0,0-0.01,0c0.05-0.11,0.1-0.22,0.18-0.31c0.48-0.61,1.16-0.96,1.93-0.99c0.76-0.03,1.51,0.27,2.11,0.84
			c1.93,1.84,2.63,4.63,1.98,7.01C94.77,811.91,92.16,811.53,90.24,809.7z M90.52,804.85c0.05-0.01,0.11-0.02,0.17-0.03
			c0.35-0.01,0.69,0.12,0.97,0.39c0.11,0.11,0.18,0.25,0.2,0.41c0.01,0.15-0.02,0.29-0.1,0.4c-0.09,0.1-0.21,0.17-0.34,0.17
			c-0.14,0-0.29-0.05-0.4-0.16c-0.27-0.26-0.45-0.62-0.48-1C90.52,804.97,90.52,804.91,90.52,804.85z M93.61,815.78
			c0.91-0.63,1.71-1.41,2.49-2.39c0.51-0.65,0.88-1.38,1.11-2.16c0.66-0.37,1.27-0.86,1.78-1.51c1.42-1.8,2.2-4.15,2.47-6.6
			l0.23,0.26c0.3,5.18-0.76,9.71-3.67,13.66C96.51,816.74,95.03,816.32,93.61,815.78z"/>
	</g>
</g>
<radialGradient id="SVGID_27_" cx="7818.4912" cy="-7046.7178" r="9.6913" fx="7815.7349" fy="-7051.4346" gradientTransform="matrix(-1.1395 0 0 1.0862 8928.5186 8487.6729)" gradientUnits="userSpaceOnUse">
	<stop  offset="0.0385" style="stop-color:#4D4D4D"/>
	<stop  offset="0.3132" style="stop-color:#262626"/>
	<stop  offset="0.9879" style="stop-color:#1D1D1B"/>
</radialGradient>
<path class="st30" d="M19.28,819.09c0.41-0.44,1.04-0.57,1.17,0.19c1.94,9.25,11.49,13.47,6.88,20.81
	c-0.31,0.49-1.15,1.77-2.79,2.72c-2.16,1.04-5.62,1.44-8.59-0.27c-3.96-2.29-5.64-7.66-3.36-13.15
	C14.86,823.89,19.28,819.09,19.28,819.09z"/>
</svg>
