<?xml version="1.0" encoding="utf-8"?>
<!-- Generator: Adobe Illustrator 24.1.0, SVG Export Plug-In . SVG Version: 6.00 Build 0)  -->
<svg version="1.1" id="Layer_1" xmlns="http://www.w3.org/2000/svg" xmlns:xlink="http://www.w3.org/1999/xlink" x="0px" y="0px"
	 viewBox="0 0 300 300" style="enable-background:new 0 0 300 300;" xml:space="preserve">
<style type="text/css">
	.st0{fill:#FBB040;}
	.st1{fill:#FBC940;}
	.st2{fill:#FBD640;}
	.st3{fill:#F9ED32;}
	.st4{fill:#FFF988;}
	.st5{fill:#FFFFFF;}
	.st6{fill:#726658;}
</style>
<g>
	<path class="st0" d="M244.59,150c0,6.73-13.82,11.82-15.25,18.11c-1.48,6.5,8.73,17.07,5.9,22.94c-2.88,5.96-17.53,4.55-21.62,9.67
		c-4.11,5.15,0.51,19.12-4.63,23.23c-5.12,4.09-17.71-3.51-23.68-0.63c-5.87,2.83-7.75,17.44-14.26,18.92
		c-6.3,1.43-14.32-10.88-21.05-10.88c-6.73,0-14.75,12.31-21.05,10.88c-6.5-1.48-8.39-16.09-14.26-18.92
		c-5.96-2.88-18.55,4.72-23.68,0.63c-5.15-4.11-0.52-18.08-4.63-23.23c-4.09-5.12-18.75-3.71-21.62-9.67
		c-2.83-5.87,7.38-16.44,5.9-22.94c-1.43-6.3-15.25-11.38-15.25-18.11c0-6.73,13.82-11.82,15.25-18.11
		c1.48-6.5-8.73-17.07-5.9-22.94c2.88-5.96,17.53-4.55,21.62-9.67c4.11-5.15-0.51-19.12,4.63-23.23c5.12-4.09,17.71,3.51,23.68,0.63
		c5.87-2.83,7.75-17.44,14.25-18.92c6.3-1.43,14.32,10.88,21.05,10.88c6.73,0,14.75-12.31,21.05-10.88
		c6.5,1.48,8.39,16.09,14.26,18.92c5.96,2.88,18.55-4.72,23.68-0.63c5.15,4.11,0.52,18.08,4.63,23.23
		c4.09,5.12,18.75,3.71,21.62,9.67c2.83,5.87-7.38,16.44-5.9,22.94C230.76,138.18,244.59,143.27,244.59,150z"/>
	<circle class="st1" cx="149.05" cy="151.89" r="75.61"/>
	<circle class="st2" cx="150" cy="150" r="70.64"/>
	<path class="st3" d="M201.21,113.49c-4.47-7.68-10.35-14.5-17.51-19.81c-5.68-4.22-11.67-7.31-18.77-8.2
		c-7.44-0.93-15.07-0.37-22.41,1.07c-4.2,0.82-8.42,2.22-12.43,4.1c-0.95,0.26-1.9,0.52-2.83,0.78c-6.41,1.79-12.66,4.63-17.94,8.71
		c-18.17,14.08-24.3,36.25-18.74,57.42c0.11,1.87,0.31,3.72,0.67,5.53c1.54,7.73,6.07,13.72,10.9,19.7
		c0.09,0.11,0.18,0.22,0.27,0.34c4.32,6.69,9.51,12.84,15.59,17.16c8.12,5.77,18.98,7.56,29.31,7.5c0.74,0.13,1.48,0.25,2.21,0.37
		c13.63,2.12,27.01-2.94,38.3-10.45c11.55-7.68,20.05-18.51,23.91-31.9C217.12,147.12,212.38,128.12,201.21,113.49z"/>
	<path class="st4" d="M115.23,180.99c-0.13-0.11-0.29-0.2-0.52-0.22c-5.61-0.48-12.78-0.78-18,1.74c-3.66,1.76-3.63,5.33-1.07,7.87
		c0.29,3.17,5.78,3.94,8.55,4.13c5.57,0.37,12.3-1.24,16.44-5.2c0.4-0.39,0.72-0.75,0.97-1.1c1.13-0.88,1.94-1.89,2.13-3.07
		C124.27,181.78,120.32,180.7,115.23,180.99z M117.72,186.95c-0.17-0.34-0.43-0.64-0.77-0.83c-0.09-0.05-0.18-0.08-0.26-0.12
		c-0.23-0.14-0.47-0.27-0.71-0.38c0.99,0.09,1.87,0.38,2.2,1.09C118.03,186.79,117.88,186.87,117.72,186.95z M101.06,184.15
		c0.5-0.12,1.01-0.2,1.52-0.3c-2.12,0.85-3.94,1.82-5.15,2.84c0.12-0.53,0.36-1.11,0.75-1.76
		C99.12,184.61,100.08,184.35,101.06,184.15z"/>
	<path class="st4" d="M214.16,165.29c0.01-0.07,0.01-0.13,0.01-0.2c0.23-0.28,0.46-0.55,0.68-0.83c0.5-0.66,0.44-1.92-0.36-2.36
		c-1.17-0.65-2.45-1.03-3.79-1.2c-3.11-1.3-7.34-1.08-10.31-0.49c-2.22,0.45-7.27,2.82-10.15,5.52c-2.61,0.92-4.94,2.25-6.72,4.12
		c-0.72,0.76-0.92,2.08,0.12,2.72c6.59,4.08,18.12,2.68,25.39-1.43c2.43-0.81,4.64-2,5.68-3.84
		C215.09,166.59,214.76,165.74,214.16,165.29z"/>
	<path class="st4" d="M203.7,110.01c-0.98-3.4-2.71-6.78-5.23-9.88c-2-2.46-4.29-4.59-7.38-6.19c-3.24-1.67-6.77-2.87-10.29-3.73
		c-2.01-0.49-4.11-0.79-6.18-0.88c-0.47-0.09-0.93-0.17-1.39-0.25c-3.14-0.57-6.36-0.75-9.3-0.33c-10.14,1.44-15.93,7.8-16.29,15.96
		c-0.2,0.65-0.36,1.31-0.45,1.99c-0.36,2.89,0.88,5.74,2.26,8.64c0.03,0.05,0.05,0.11,0.08,0.16c1.04,3.04,2.56,6.07,4.73,8.63
		c2.89,3.43,7.56,6.01,12.25,7.87c0.32,0.18,0.64,0.36,0.95,0.53c5.88,3.2,12.63,3.94,18.76,3.46c6.27-0.49,11.59-2.59,15.16-6.4
		C206.33,124.26,206.77,116.98,203.7,110.01z"/>
	<path class="st1" d="M205.09,78.15c0.45,1.48-1.74,3.46-4.89,4.42c-3.15,0.96-6.07,0.53-6.52-0.95c-0.45-1.48,1.74-3.46,4.89-4.42
		C201.72,76.24,204.64,76.66,205.09,78.15z"/>
	<ellipse transform="matrix(0.1546 -0.988 0.988 0.1546 83.1118 313.9283)" class="st1" cx="225" cy="108.4" rx="2.81" ry="5.96"/>
	<path class="st3" d="M229.39,108.36c-0.1,0.67-1.34,1.03-2.75,0.81c-1.41-0.22-2.48-0.94-2.37-1.61c0.1-0.67,1.34-1.03,2.75-0.81
		C228.43,106.97,229.5,107.69,229.39,108.36z"/>
	<path class="st1" d="M240.54,149.43c-0.89,1.27-3.8,0.75-6.49-1.15c-2.69-1.9-4.15-4.47-3.25-5.73c0.9-1.27,3.8-0.75,6.49,1.15
		C239.98,145.6,241.44,148.17,240.54,149.43z"/>
	<path class="st3" d="M239.62,147.91c-0.39,0.55-1.65,0.33-2.82-0.5c-1.17-0.83-1.8-1.94-1.41-2.49c0.39-0.55,1.65-0.33,2.82,0.5
		C239.38,146.24,240.01,147.36,239.62,147.91z"/>
	<path class="st1" d="M231.87,188.68c-1.36,0.75-3.75-0.97-5.36-3.84c-1.6-2.88-1.8-5.82-0.45-6.58c1.36-0.76,3.75,0.97,5.36,3.84
		C233.02,184.98,233.22,187.92,231.87,188.68z"/>
	<path class="st3" d="M231.7,186.9c-0.59,0.33-1.63-0.42-2.33-1.67c-0.7-1.25-0.78-2.53-0.19-2.86c0.59-0.33,1.63,0.42,2.33,1.67
		C232.2,185.3,232.29,186.58,231.7,186.9z"/>
	
		<ellipse transform="matrix(0.9975 -0.0713 0.0713 0.9975 -14.7162 15.3364)" class="st1" cx="207.39" cy="213.73" rx="2.81" ry="5.96"/>
	<path class="st3" d="M208.41,218c-0.67,0.05-1.3-1.07-1.4-2.5c-0.1-1.43,0.36-2.62,1.03-2.67c0.67-0.05,1.3,1.07,1.4,2.5
		C209.55,216.76,209.09,217.96,208.41,218z"/>
	<path class="st1" d="M170.92,238.09c-1.44-0.59-1.59-3.53-0.34-6.58c1.25-3.05,3.42-5.04,4.86-4.46s1.59,3.53,0.34,6.58
		C174.53,236.69,172.35,238.68,170.92,238.09z"/>
	<path class="st3" d="M172.2,236.86c-0.62-0.26-0.69-1.54-0.15-2.86c0.54-1.33,1.49-2.19,2.11-1.94c0.62,0.26,0.69,1.54,0.15,2.86
		C173.77,236.25,172.82,237.11,172.2,236.86z"/>
	<path class="st1" d="M131.02,238.53c-1.04-1.15,0.08-3.87,2.52-6.09c2.44-2.22,5.26-3.08,6.3-1.94c1.04,1.15-0.08,3.87-2.52,6.09
		C134.89,238.81,132.07,239.68,131.02,238.53z"/>
	<path class="st3" d="M132.71,237.97c-0.45-0.5,0.04-1.68,1.1-2.65c1.06-0.96,2.29-1.34,2.74-0.84c0.45,0.5-0.04,1.68-1.1,2.65
		C134.39,238.09,133.16,238.46,132.71,237.97z"/>
	<path class="st1" d="M94.4,221.46c-0.44-1.49,1.76-3.45,4.92-4.39c3.16-0.94,6.07-0.49,6.52,1c0.44,1.49-1.76,3.45-4.92,4.39
		C97.76,223.39,94.84,222.95,94.4,221.46z"/>
	<path class="st3" d="M96.16,221.68c-0.19-0.65,0.77-1.5,2.14-1.91c1.37-0.41,2.64-0.21,2.83,0.43c0.19,0.65-0.77,1.5-2.14,1.91
		C97.62,222.52,96.36,222.33,96.16,221.68z"/>
	<path class="st1" d="M69.07,190.61c0.24-1.53,3.07-2.36,6.33-1.85c3.25,0.51,5.7,2.17,5.45,3.7c-0.24,1.53-3.07,2.36-6.33,1.85
		C71.28,193.8,68.83,192.14,69.07,190.61z"/>
	
		<ellipse transform="matrix(0.1555 -0.9878 0.9878 0.1555 -127.8788 234.3589)" class="st3" cx="73.13" cy="191.97" rx="1.22" ry="2.59"/>
	<path class="st1" d="M59.46,150.51c0.9-1.27,3.8-0.75,6.49,1.15c2.69,1.9,4.14,4.47,3.25,5.74c-0.9,1.27-3.8,0.75-6.49-1.15
		C60.02,154.35,58.56,151.78,59.46,150.51z"/>
	<path class="st3" d="M60.37,152.04c0.39-0.55,1.65-0.33,2.82,0.5c1.17,0.83,1.8,1.94,1.41,2.49c-0.39,0.55-1.65,0.33-2.82-0.5
		C60.62,153.71,59.99,152.59,60.37,152.04z"/>
	<path class="st1" d="M68.32,110.93c1.36-0.75,3.75,0.98,5.34,3.87c1.59,2.88,1.78,5.83,0.42,6.58c-1.36,0.75-3.75-0.98-5.34-3.87
		C67.15,114.63,66.96,111.68,68.32,110.93z"/>
	<path class="st3" d="M68.48,112.71c0.59-0.33,1.63,0.43,2.32,1.68s0.77,2.53,0.18,2.86c-0.59,0.33-1.63-0.43-2.32-1.68
		C67.97,114.31,67.89,113.03,68.48,112.71z"/>
	<ellipse transform="matrix(0.999 -0.0457 0.0457 0.999 -3.7807 4.4)" class="st1" cx="94.26" cy="84.82" rx="2.81" ry="5.96"/>
	<path class="st3" d="M93.35,80.52c0.67-0.03,1.27,1.1,1.34,2.53c0.07,1.43-0.43,2.61-1.1,2.65c-0.67,0.03-1.27-1.1-1.34-2.53
		C92.18,81.74,92.67,80.55,93.35,80.52z"/>
	<path class="st5" d="M132.74,148.95c-1.01-3.96-2.95-7.4-5.8-10.33c-1.6-1.24-3.2-2.49-4.8-3.73c-3.46-1.99-7.18-3.01-11.16-3.06
		c-3.01-0.14-5.84,0.45-8.49,1.76c-2.92,0.88-5.45,2.45-7.6,4.72c-2.31,2.1-3.93,4.6-4.87,7.51c-1.37,2.62-2.01,5.44-1.93,8.45
		c0.23,1.92,0.45,3.84,0.68,5.76c1.01,3.96,2.95,7.4,5.8,10.33c1.6,1.24,3.2,2.49,4.8,3.73c3.46,1.99,7.18,3.01,11.16,3.06
		c3.01,0.14,5.84-0.45,8.49-1.76c2.92-0.88,5.45-2.45,7.6-4.72c2.31-2.1,3.93-4.6,4.87-7.51c1.37-2.62,2.01-5.44,1.93-8.45
		C133.19,152.79,132.96,150.87,132.74,148.95z"/>
	<path class="st5" d="M216.85,133.44c-0.47-2.22-0.94-4.45-1.41-6.67c-1.56-4.42-4.1-8.18-7.62-11.28l-5.97-3.93
		c-4.34-2.07-8.91-2.93-13.7-2.56c-3.53,0.16-6.77,1.14-9.72,2.94c-3.24,1.3-5.98,3.33-8.23,6.1c-2.54,2.71-4.22,5.83-5.04,9.37
		c-1.39,3.27-1.88,6.7-1.45,10.3c0.47,2.22,0.94,4.45,1.41,6.67c1.56,4.42,4.1,8.18,7.62,11.28l5.97,3.93
		c4.34,2.07,8.91,2.93,13.7,2.56c3.53-0.16,6.77-1.14,9.72-2.94c3.24-1.3,5.98-3.33,8.23-6.1c2.54-2.71,4.22-5.83,5.04-9.37
		C216.8,140.47,217.28,137.04,216.85,133.44z"/>
	<path class="st6" d="M127.93,151.23c-0.59-0.54-1.19-1.09-1.78-1.63c-1.3-0.9-2.74-1.42-4.32-1.57c-1.19-0.15-2.33-0.01-3.41,0.43
		c-1.18,0.25-2.24,0.8-3.16,1.63c-0.98,0.76-1.7,1.7-2.16,2.81c-0.62,0.99-0.97,2.09-1.03,3.28c-0.11,2.32,0.43,4.8,2.05,6.57
		c0.59,0.54,1.19,1.09,1.78,1.63c1.3,0.9,2.74,1.42,4.32,1.57c1.19,0.15,2.33,0.01,3.41-0.43c1.18-0.25,2.24-0.8,3.16-1.63
		c0.98-0.76,1.7-1.7,2.16-2.81c0.62-0.99,0.97-2.09,1.03-3.28C130.09,155.48,129.55,153,127.93,151.23z"/>
	<path class="st6" d="M185.3,138.35c-0.67-0.51-1.34-1.02-2.02-1.53c-1.45-0.81-3-1.21-4.66-1.22c-1.26-0.04-2.43,0.22-3.52,0.78
		c-1.21,0.38-2.26,1.05-3.14,2c-0.95,0.89-1.61,1.94-1.99,3.15c-0.56,1.1-0.81,2.27-0.76,3.53c0.11,2.44,0.92,4.97,2.78,6.66
		c0.67,0.51,1.34,1.02,2.02,1.53c1.45,0.81,3,1.21,4.66,1.22c1.26,0.04,2.43-0.22,3.52-0.78c1.21-0.38,2.26-1.05,3.14-2
		c0.95-0.89,1.61-1.94,1.99-3.15c0.56-1.1,0.81-2.27,0.76-3.53C187.97,142.57,187.16,140.04,185.3,138.35z"/>
	<path class="st6" d="M161.53,161.2c-0.32-1.23-2.33-1.17-2.71-0.02c-1.05,3.17-1.77,6.45-5.76,7.13c-3.27,0.56-6.11-1.67-7.44-4.49
		c-0.76-1.6-3.18-0.92-2.68,0.87c1.27,4.54,5.95,7.69,10.67,6.97C158.24,170.96,162.79,166.03,161.53,161.2z"/>
	<path class="st6" d="M119.54,183.35c-1.23,0.56-3.32,2.46-4.46,2.52c-3.58,0.19-0.11-0.49-1.69-0.98c-2.15-0.67-3,0.67-5.02,1.65
		c-3.15,1.52-1.13-0.77-3.18-1.84c-1.93-1-4.84,1.92-6,2.98c-0.32,0.29,0.13,0.73,0.46,0.55c1.76-0.98,3.48-1.78,5.27-0.43
		c0.8,0.6-0.06,1.06,1.14,1.76c0.16,0.09,0.4,0.1,0.55-0.01c1.33-0.96,4.06-4.55,5.92-3.65c-0.13-0.06,0.45,1.3,0.64,1.43
		c1.84,1.3,5.55-2.15,6.83-3.2C120.4,183.79,120.01,183.13,119.54,183.35z"/>
	<path class="st6" d="M214.61,163.13c-2.02,0.89-4.3-0.07-6.42,0.72c-2.17,0.81-3.48,3.71-4.8,0.82c-0.17-0.37-0.64-0.29-0.88-0.09
		c-1.38,1.16-2.46,2.4-4.31,2.76c-1.35,0.27-1.91,0.41-2.08,0.46c0.27-0.09,1.27-0.49,0.45-1.04c-0.31-0.21-0.48-0.83-0.87-1.07
		c-1.86-1.12-3.29,1.12-3.96,2.43c-0.28,0.55,0.52,1.09,0.82,0.53c0.99-0.27,1.97-0.54,2.96-0.81c0.05,0.31,0.09,0.63,0.14,0.94
		c0.06,0.03,0.02,0.28,0.12,0.32c0.4,0.15,0.72,0.57,1.18,0.64c2.63,0.4,5.2-5.85,6.41-1.92c0.11,0.37,0.65,0.52,0.94,0.27
		c1.5-1.25,2.54-1.9,4.47-2.6c2.76-1,2.11-0.32,4.32-0.63c1.08-0.15,1.26-0.21,2.08-0.94C215.63,163.55,215.11,162.91,214.61,163.13
		z"/>
	<path class="st1" d="M171.43,61.52c1.03,1.16-0.13,3.87-2.6,6.06c-2.46,2.19-5.3,3.02-6.32,1.86c-1.03-1.16,0.13-3.87,2.6-6.06
		C167.56,61.19,170.4,60.36,171.43,61.52z"/>
	<path class="st3" d="M169.73,62.06c0.45,0.5-0.06,1.68-1.13,2.63c-1.07,0.95-2.3,1.31-2.75,0.81c-0.45-0.5,0.06-1.68,1.13-2.63
		C168.05,61.92,169.28,61.56,169.73,62.06z"/>
	<path class="st3" d="M204.66,77.74c0.2,0.65-0.75,1.51-2.12,1.92c-1.37,0.42-2.64,0.23-2.84-0.41c-0.2-0.65,0.75-1.51,2.12-1.92
		C203.19,76.91,204.46,77.09,204.66,77.74z"/>
	<path class="st1" d="M131.38,61.49c1.43,0.6,1.55,3.55,0.27,6.59c-1.28,3.03-3.48,5.01-4.91,4.4s-1.55-3.55-0.27-6.59
		C127.75,62.86,129.95,60.88,131.38,61.49z"/>
	<path class="st3" d="M130.09,62.71c0.62,0.26,0.67,1.54,0.12,2.86c-0.56,1.32-1.51,2.18-2.13,1.91c-0.62-0.26-0.67-1.54-0.12-2.86
		C128.51,63.3,129.46,62.45,130.09,62.71z"/>
</g>
</svg>
