<svg width="680" height="879" viewBox="0 0 680 879" fill="none" xmlns="http://www.w3.org/2000/svg">
<g filter="url(#filter0_d)">
<rect x="4" width="672" height="871" rx="5" fill="#FDFDFD"/>
</g>
<path d="M343.053 189.72L341.773 205.88L322.413 204.92H316.013L315.213 258.36L316.173 291H294.413L295.533 260.28L294.733 204.92H288.332L268.653 205.88L267.213 204.12L268.653 187.96H341.773L343.053 189.72ZM375.765 215.16C386.645 215.16 394.965 218.36 400.725 224.76C406.485 231.16 409.365 240.387 409.365 252.44C409.365 265.453 406.272 275.427 400.085 282.36C393.898 289.187 384.992 292.6 373.365 292.6C362.485 292.6 354.165 289.4 348.405 283C342.645 276.6 339.765 267.373 339.765 255.32C339.765 242.307 342.858 232.387 349.045 225.56C355.232 218.627 364.138 215.16 375.765 215.16ZM374.325 229.56C369.205 229.56 365.472 231.267 363.125 234.68C360.885 238.093 359.765 243.587 359.765 251.16C359.765 260.973 360.938 267.96 363.285 272.12C365.632 276.28 369.472 278.36 374.805 278.36C379.925 278.36 383.605 276.707 385.845 273.4C388.192 269.987 389.365 264.44 389.365 256.76C389.365 247.053 388.138 240.12 385.685 235.96C383.338 231.693 379.552 229.56 374.325 229.56ZM203.107 418.2L204.227 451H182.947L184.067 420.12L183.107 340.28L204.387 338.68L203.107 418.2ZM281.938 416.44L238.738 416.76C239.698 430.093 246.471 436.76 259.058 436.76C265.671 436.76 273.031 434.893 281.138 431.16L282.898 432.28L279.698 448.12C271.591 451.107 263.965 452.6 256.818 452.6C245.085 452.6 235.858 449.187 229.138 442.36C222.525 435.533 219.218 426.093 219.218 414.04C219.218 402.093 222.471 392.653 228.978 385.72C235.485 378.68 244.285 375.16 255.378 375.16C264.871 375.16 272.178 377.773 277.298 383C282.525 388.12 285.138 395.32 285.138 404.6C285.138 407.053 284.871 410.147 284.338 413.88L281.938 416.44ZM266.578 402.2C266.578 397.933 265.618 394.733 263.698 392.6C261.778 390.36 258.951 389.24 255.218 389.24C251.058 389.24 247.591 390.627 244.818 393.4C242.045 396.067 240.178 399.96 239.218 405.08L266.258 404.44L266.578 402.2ZM329.087 375.16C337.3 375.16 343.7 377.027 348.287 380.76C352.98 384.387 355.327 389.507 355.327 396.12C355.327 398.04 355.007 404.12 354.367 414.36C354.26 417.347 354.1 420.44 353.887 423.64C353.674 426.733 353.567 429.4 353.567 431.64C353.567 433.453 353.834 434.733 354.367 435.48C354.9 436.12 355.86 436.44 357.247 436.44C358.314 436.44 359.7 436.227 361.407 435.8L363.007 437.08L361.087 448.28C357.674 450.52 353.78 451.853 349.407 452.28C346.207 451.96 343.54 450.84 341.407 448.92C339.274 446.893 337.834 444.12 337.087 440.6H335.967C330.634 446.253 325.14 450.2 319.487 452.44C311.807 452.333 305.78 450.307 301.407 446.36C297.034 442.413 294.847 437.027 294.847 430.2C294.847 424.867 296.18 420.707 298.847 417.72C301.62 414.627 305.78 412.547 311.327 411.48L335.807 406.84V400.28C335.807 393.347 332.394 389.88 325.567 389.88C322.26 389.88 318.74 390.627 315.007 392.12C311.38 393.613 307.274 395.96 302.687 399.16L301.087 398.2L298.687 384.12C303.274 381.24 308.18 379.053 313.407 377.56C318.634 375.96 323.86 375.16 329.087 375.16ZM318.687 421.24C316.98 421.667 315.7 422.413 314.847 423.48C314.1 424.44 313.727 425.933 313.727 427.96C313.727 430.733 314.474 432.92 315.967 434.52C317.46 436.013 319.54 436.76 322.207 436.76C326.367 436.76 330.74 434.307 335.327 429.4L335.647 417.56L318.687 421.24ZM417.021 376.44C417.981 376.44 419.314 376.547 421.021 376.76V396.44L418.781 397.24C416.967 396.493 414.994 396.12 412.861 396.12C406.674 396.12 401.074 400.12 396.061 408.12V418.2L397.181 451H375.901L377.181 420.28L376.221 378.04L396.381 376.28L396.221 390.84H397.501C402.727 381.24 409.234 376.44 417.021 376.44ZM477.286 404.6C477.392 400.867 476.539 397.987 474.726 395.96C473.019 393.827 470.512 392.76 467.206 392.76C462.406 392.76 457.286 395.053 451.846 399.64V418.2L452.806 451H431.526L432.646 420.28L431.846 378.04L452.006 376.28V387.16H453.126C458.992 381.827 465.392 377.987 472.326 375.64C480.432 375.64 486.619 377.507 490.886 381.24C495.152 384.867 497.179 390.147 496.966 397.08L496.486 418.36L497.446 451H476.006L477.286 404.6ZM248.146 611L249.426 564.6C249.426 556.707 246.066 552.76 239.346 552.76C234.546 552.76 229.532 554.893 224.306 559.16L223.826 578.36L224.786 611H203.506L204.786 564.6C204.892 560.76 204.039 557.827 202.226 555.8C200.519 553.773 198.012 552.76 194.706 552.76C190.012 552.76 184.839 555 179.186 559.48V578.2L180.146 611H159.026L160.146 580.28L159.346 538.04L179.346 536.28V547.16H180.466C186.332 541.827 192.786 537.987 199.826 535.64C211.772 535.64 219.399 539.64 222.706 547.64H223.666C229.746 541.987 236.679 537.987 244.466 535.64C252.572 535.64 258.706 537.507 262.866 541.24C267.132 544.867 269.159 550.147 268.946 557.08L268.466 578.36L269.426 611H248.146ZM318.968 535.16C329.848 535.16 338.168 538.36 343.928 544.76C349.688 551.16 352.568 560.387 352.568 572.44C352.568 585.453 349.475 595.427 343.288 602.36C337.101 609.187 328.195 612.6 316.568 612.6C305.688 612.6 297.368 609.4 291.608 603C285.848 596.6 282.968 587.373 282.968 575.32C282.968 562.307 286.061 552.387 292.248 545.56C298.435 538.627 307.341 535.16 318.968 535.16ZM317.528 549.56C312.408 549.56 308.675 551.267 306.328 554.68C304.088 558.093 302.968 563.587 302.968 571.16C302.968 580.973 304.141 587.96 306.488 592.12C308.835 596.28 312.675 598.36 318.008 598.36C323.128 598.36 326.808 596.707 329.048 593.4C331.395 589.987 332.568 584.44 332.568 576.76C332.568 567.053 331.341 560.12 328.888 555.96C326.541 551.693 322.755 549.56 317.528 549.56ZM407.333 536.44C408.293 536.44 409.626 536.547 411.333 536.76V556.44L409.093 557.24C407.28 556.493 405.306 556.12 403.173 556.12C396.986 556.12 391.386 560.12 386.373 568.12V578.2L387.493 611H366.213L367.493 580.28L366.533 538.04L386.693 536.28L386.533 550.84H387.813C393.04 541.24 399.546 536.44 407.333 536.44ZM479.438 576.44L436.238 576.76C437.198 590.093 443.971 596.76 456.558 596.76C463.171 596.76 470.531 594.893 478.638 591.16L480.398 592.28L477.198 608.12C469.091 611.107 461.465 612.6 454.318 612.6C442.585 612.6 433.358 609.187 426.638 602.36C420.025 595.533 416.718 586.093 416.718 574.04C416.718 562.093 419.971 552.653 426.478 545.72C432.985 538.68 441.785 535.16 452.878 535.16C462.371 535.16 469.678 537.773 474.798 543C480.025 548.12 482.638 555.32 482.638 564.6C482.638 567.053 482.371 570.147 481.838 573.88L479.438 576.44ZM464.078 562.2C464.078 557.933 463.118 554.733 461.198 552.6C459.278 550.36 456.451 549.24 452.718 549.24C448.558 549.24 445.091 550.627 442.318 553.4C439.545 556.067 437.678 559.96 436.718 565.08L463.758 564.44L464.078 562.2ZM521.147 507L515.227 573.08L503.227 574.68L500.987 572.6L499.707 507.96L501.627 505.56L518.587 504.44L521.147 507ZM507.387 589.4C510.694 589.4 513.254 590.36 515.067 592.28C516.987 594.2 517.947 596.867 517.947 600.28C517.947 603.907 516.934 606.787 514.907 608.92C512.88 611.053 510.107 612.12 506.587 612.12C503.067 612.12 500.347 611.16 498.427 609.24C496.614 607.32 495.707 604.6 495.707 601.08C495.707 597.56 496.72 594.733 498.747 592.6C500.88 590.467 503.76 589.4 507.387 589.4Z" fill="black"/>
<defs>
<filter id="filter0_d" x="0" y="0" width="680" height="879" filterUnits="userSpaceOnUse" color-interpolation-filters="sRGB">
<feFlood flood-opacity="0" result="BackgroundImageFix"/>
<feColorMatrix in="SourceAlpha" type="matrix" values="0 0 0 0 0 0 0 0 0 0 0 0 0 0 0 0 0 0 127 0"/>
<feOffset dy="4"/>
<feGaussianBlur stdDeviation="2"/>
<feColorMatrix type="matrix" values="0 0 0 0 0 0 0 0 0 0 0 0 0 0 0 0 0 0 0.25 0"/>
<feBlend mode="normal" in2="BackgroundImageFix" result="effect1_dropShadow"/>
<feBlend mode="normal" in="SourceGraphic" in2="effect1_dropShadow" result="shape"/>
</filter>
</defs>
</svg>
