<svg width="20" height="26" viewBox="0 0 20 26" fill="none" xmlns="http://www.w3.org/2000/svg">
<path d="M15.2087 25.5C14.2226 25.5012 13.2662 25.1628 12.5003 24.5417L1.87534 15.7709C1.45869 15.4392 1.1222 15.0178 0.890929 14.538C0.659656 14.0583 0.539551 13.5326 0.539551 13C0.539551 12.4675 0.659656 11.9417 0.890929 11.462C1.1222 10.9823 1.45869 10.5609 1.87534 10.2292L12.5003 1.45836C13.14 0.945843 13.9107 0.623326 14.7248 0.527558C15.5388 0.431789 16.3634 0.566621 17.1045 0.916689C17.7486 1.2006 18.2974 1.66392 18.6853 2.25131C19.0732 2.8387 19.2838 3.52533 19.292 4.22919V21.7709C19.2838 22.4747 19.0732 23.1613 18.6853 23.7487C18.2974 24.3361 17.7486 24.7994 17.1045 25.0834C16.509 25.3542 15.8629 25.4962 15.2087 25.5Z" fill="black"/>
</svg>
