<svg width="41" height="50" viewBox="0 0 41 50" fill="none" xmlns="http://www.w3.org/2000/svg">
<path d="M32.5666 13.6784V18.6546H36.5452C38.1785 18.6546 39.5302 20.0023 39.5302 21.6356V45.5152C39.5302 47.1485 38.1785 48.4962 36.5452 48.4962H4.70835C3.07507 48.4962 1.72339 47.1485 1.72339 45.5152V21.6356C1.72339 20.0023 3.07507 18.6546 4.70835 18.6546H8.68695V13.6784C8.68695 7.07685 14.0253 1.73853 20.6268 1.73853C27.2283 1.73853 32.5666 7.07685 32.5666 13.6784ZM10.6783 13.6784V18.6546H30.5753V13.6784C30.5753 8.13889 26.1663 3.72984 20.6268 3.72984C15.0873 3.72984 10.6783 8.13889 10.6783 13.6784ZM3.7147 21.6356V45.5152C3.7147 46.0664 4.15722 46.5089 4.70835 46.5089H36.5452C37.0963 46.5089 37.5389 46.0664 37.5389 45.5152V21.6356C37.5389 21.0844 37.0963 20.6419 36.5452 20.6419H4.70835C4.15722 20.6419 3.7147 21.0844 3.7147 21.6356ZM23.6117 31.5841C23.6117 32.4812 23.2135 33.2656 22.6181 33.7604V36.5604C22.6181 37.6546 21.721 38.5476 20.6268 38.5476C19.5326 38.5476 18.6355 37.6546 18.6355 36.5604V33.7604C18.0401 33.2656 17.6418 32.4812 17.6418 31.5841C17.6418 29.8945 18.9372 28.5991 20.6268 28.5991C22.3164 28.5991 23.6117 29.8945 23.6117 31.5841Z" fill="#888383" stroke="#888383" stroke-width="1.68488" stroke-miterlimit="10" stroke-linejoin="round"/>
<path d="M20.6268 1.73853C14.0253 1.73853 8.68695 7.07685 8.68695 13.6784V18.6546H4.70835C3.07507 18.6546 1.72339 20.0023 1.72339 21.6356V45.5152C1.72339 47.1485 3.07507 48.4962 4.70835 48.4962H36.5452C38.1785 48.4962 39.5302 47.1485 39.5302 45.5152V21.6356C39.5302 20.0023 38.1785 18.6546 36.5452 18.6546H32.5666V13.6784C32.5666 7.07685 27.2283 1.73853 20.6268 1.73853ZM20.6268 3.72984C26.1663 3.72984 30.5753 8.13889 30.5753 13.6784V18.6546H10.6783V13.6784C10.6783 8.13889 15.0873 3.72984 20.6268 3.72984ZM4.70835 20.6419H36.5452C37.0964 20.6419 37.5389 21.0844 37.5389 21.6356V45.5152C37.5389 46.0664 37.0964 46.5089 36.5452 46.5089H4.70835C4.15722 46.5089 3.7147 46.0664 3.7147 45.5152V21.6356C3.7147 21.0844 4.15722 20.6419 4.70835 20.6419ZM20.6268 28.5991C18.9372 28.5991 17.6418 29.8945 17.6418 31.5841C17.6418 32.4812 18.0401 33.2656 18.6355 33.7604V36.5604C18.6355 37.6546 19.5326 38.5476 20.6268 38.5476C21.721 38.5476 22.6181 37.6546 22.6181 36.5604V33.7604C23.2135 33.2656 23.6117 32.4812 23.6117 31.5841C23.6117 29.8945 22.3164 28.5991 20.6268 28.5991Z" fill="#888383"/>
</svg>
