<svg width="39" height="39" viewBox="0 0 39 39" fill="none" xmlns="http://www.w3.org/2000/svg">
<path d="M31.98 20.1424C31.98 19.3624 31.3835 18.7659 30.6035 18.7659C29.8235 18.7659 29.2271 19.3624 29.2271 20.1424C29.2271 25.5106 24.8683 29.8694 19.5 29.8694C14.1318 29.8694 9.77296 25.5106 9.77296 20.1424C9.77296 19.3624 9.17649 18.7659 8.39649 18.7659C7.61649 18.7659 7.02002 19.3624 7.02002 20.1424C7.02002 26.52 11.7918 31.8882 18.1235 32.5765V36.2471H13.1224C12.3424 36.2471 11.7459 36.8435 11.7459 37.6235C11.7459 38.4035 12.3424 39 13.1224 39H25.8777C26.6577 39 27.2541 38.4035 27.2541 37.6235C27.2541 36.8435 26.6577 36.2471 25.8777 36.2471H20.8765V32.5765C27.2083 31.8882 31.98 26.52 31.98 20.1424Z" fill="#888383"/>
<path d="M19.5 0C15.2788 0 11.8376 3.44118 11.8376 7.66235V20.0965C11.8376 24.3635 15.2788 27.7588 19.5 27.8047C23.7212 27.8047 27.1623 24.3635 27.1623 20.1424V7.66235C27.1623 3.44118 23.7212 0 19.5 0Z" fill="#888383"/>
</svg>
