<svg id="Layer_1" data-name="Layer 1" xmlns="http://www.w3.org/2000/svg" viewBox="0 0 891.59 209.16"><defs><style>.cls-1,.cls-3,.cls-4{fill:none;}.cls-2{fill:#fff;}.cls-3,.cls-4{stroke:#fff;stroke-linecap:round;stroke-miterlimit:10;}.cls-3{stroke-width:8px;}.cls-4{stroke-width:6.55px;}</style></defs><path d="M746.82,241.88V41.8h42q30.19,0,47.69,6a89.32,89.32,0,0,1,34.09,19.82q31,28.26,31,74.26t-32.27,74.64q-16.2,14.27-33.95,19.83-16.59,5.56-47,5.57ZM777,213.5h13.61q20.34,0,33.82-4.27a68.79,68.79,0,0,0,24.37-14.39q22.28-20.34,22.28-53,0-32.91-22-53.39-19.83-18.27-58.44-18.27H777Z" transform="translate(-9.95 -38.04)"/><polygon class="cls-1" points="165.86 1.16 61.57 1.16 110.79 157.14 165.86 1.16"/><polygon points="110.79 159.14 61.57 3.16 36.38 3.16 0 205.75 31.23 205.75 52.74 74.85 102.41 209.16 118.39 209.16 169.5 74.98 188.81 205.75 219.78 205.75 190.89 3.16 165.86 3.16 110.79 159.14"/><path d="M604.13,38Q560.86,38,530,68.36t-31,72.57Q499,189,533,218.69q30.84,26.81,69.58,26.82,43.81,0,74.78-30.19t30.84-73.22q0-42.88-30.71-73.48T604.13,38Z" transform="translate(-9.95 -38.04)"/><circle class="cls-2" cx="556.66" cy="73.74" r="7.5"/><circle class="cls-2" cx="630.66" cy="72.74" r="7.5"/><line class="cls-3" x1="545.14" y1="145.44" x2="642.18" y2="145.44"/><path d="M368.37,39q-43.28,0-74.12,30.32t-31,72.57q0,48.09,34,77.76,30.84,26.81,69.59,26.82,43.8,0,74.77-30.19t30.84-73.22q0-42.88-30.71-73.48T368.37,39Z" transform="translate(-9.95 -38.04)"/><path class="cls-4" d="M289.28,143.75q0,36.21,25.57,58.56,23.22,20.19,52.41,20.2,33,0,56.31-22.74t23.23-55.15" transform="translate(-9.95 -38.04)"/><circle class="cls-2" cx="320.9" cy="74.74" r="7.5"/><circle class="cls-2" cx="394.9" cy="73.74" r="7.5"/></svg>