<svg width="98" height="98" viewBox="0 0 98 98" fill="none" xmlns="http://www.w3.org/2000/svg">
<path d="M93.0994 44.0999H53.9001V4.89969C53.9001 2.19548 51.7047 0 48.9995 0C46.2953 0 44.0999 2.19548 44.0999 4.89969V44.0999H4.89969C2.19548 44.0999 0 46.2953 0 48.9995C0 51.7047 2.19548 53.9001 4.89969 53.9001H44.0999V93.0994C44.0999 95.8045 46.2953 98 48.9995 98C51.7047 98 53.9001 95.8045 53.9001 93.0994V53.9001H93.0994C95.8045 53.9001 98 51.7047 98 48.9995C98 46.2953 95.8045 44.0999 93.0994 44.0999Z" fill="#888383"/>
</svg>
