<svg width="20" height="26" viewBox="0 0 20 26" fill="none" xmlns="http://www.w3.org/2000/svg">
<path d="M4.79133 0.500006C5.77739 0.498827 6.73378 0.837242 7.49966 1.45834L18.1247 10.2292C18.5413 10.5609 18.8778 10.9823 19.1091 11.462C19.3403 11.9417 19.4604 12.4674 19.4604 13C19.4604 13.5326 19.3403 14.0583 19.1091 14.538C18.8778 15.0177 18.5413 15.4391 18.1247 15.7708L7.49966 24.5417C6.86001 25.0542 6.08925 25.3767 5.27522 25.4725C4.46119 25.5682 3.63662 25.4334 2.89549 25.0833C2.25138 24.7994 1.7026 24.3361 1.31471 23.7487C0.926809 23.1613 0.716187 22.4747 0.707993 21.7708L0.707993 4.22917C0.716187 3.52531 0.926809 2.83868 1.31471 2.25129C1.7026 1.66391 2.25138 1.20059 2.89549 0.916674C3.49105 0.645845 4.13709 0.503857 4.79133 0.500006Z" fill="black"/>
</svg>
