<svg id="Layer_1" data-name="Layer 1" xmlns="http://www.w3.org/2000/svg" viewBox="0 0 1009.48 319"><defs><style>.cls-1{fill:#c3cde6;}.cls-2{fill:#666262;}.cls-3{font-size:255.76px;font-family:Alegreya-Bold, Alegreya;font-weight:700;letter-spacing:-0.01em;}.cls-4{letter-spacing:-0.01em;}.cls-5{letter-spacing:0em;}.cls-6{fill:#9f5900;}</style></defs><rect class="cls-1" x="175.98" y="0.5" width="833" height="318" rx="11.5"/><path d="M1025,34.42a11,11,0,0,1,11,11v295a11,11,0,0,1-11,11H215a11,11,0,0,1-11-11v-295a11,11,0,0,1,11-11h810m0-1H215a12,12,0,0,0-12,12v295a12,12,0,0,0,12,12h810a12,12,0,0,0,12-12v-295a12,12,0,0,0-12-12Z" transform="translate(-27.51 -33.42)"/><circle class="cls-2" cx="253.48" cy="160" r="20"/><path d="M281,176.42a17,17,0,1,1-17,17,17,17,0,0,1,17-17m0-6a23,23,0,1,0,23,23,23,23,0,0,0-23-23Z" transform="translate(-27.51 -33.42)"/><text class="cls-3" transform="translate(367.36 235.85)">Sa<tspan class="cls-4" x="253.71" y="0">v</tspan><tspan class="cls-5" x="369.56" y="0">e</tspan></text><path class="cls-6" d="M212.9,220.2c3.91.44,5.33-1.56,4.59-6-5.9-6.64-11.27-3.77-18.6-6.85,2.55,0,4.14.11,5.72.11,2.41,0,4.82.05,7.21-.13,1.87-.14,3.92-2.36,3.64-3.76-.37-1.8-2.19-1.7-3.53-1.89-2.65-.37-5.34-.42-8-.71-5-.56-10-.66-14.78-2.6a5.06,5.06,0,0,1,1.49-.1c6-.25,12-.47,18-.78a5.41,5.41,0,0,0,4.62-2.47c1.17-1.89.74-3.31-1.58-4a19.64,19.64,0,0,0-4.35-.57c-5.2-.35-10.43-.46-15.61-1-9.22-1-18.1-3.44-27.08-5.53-14.32-3.32-28.72-6.45-43.21-8.95a168.44,168.44,0,0,0-45.95-1.84c-8.42.86-16.72,2.16-24.1,6.12-4.56,2.45-8.86,5.34-13.17,8.16-.79.52-2.14,1.21-1.38,2.68a7.11,7.11,0,0,0,1.21,0c9.83-1.65,19.65-3.44,29.51-5,11.62-1.79,23.35-2.61,35.14-1.35q15.15,1.6,30.22,3.89c5.55.84,11,2.39,16.45,3.63,0,.12-.07.24-.11.37-12.13-1-24.24-2.3-36.38-3-18.16-1-35.9,2.47-53.8,4.14-.27,0-.53.09-.79.14A26.78,26.78,0,0,0,46.53,199,12.41,12.41,0,0,0,45,201.1c5.78,1,11.15,1.3,16.59,1.75A19,19,0,0,1,58,204.34a98.08,98.08,0,0,0-18.33,8,31.68,31.68,0,0,0-10.31,9.5c-1.39,2-2.28,4.15.17,6.54,2.91-1.17,5.89-2.21,8.7-3.54,5.31-2.52,10.4-5.45,15.82-7.75,13.87-5.9,28.81-7.82,44-8.51,26.78-1.22,53.48-.3,80,4.1,8.69,1.45,17.21,3.78,25.82,5.67A90.92,90.92,0,0,0,212.9,220.2ZM91,198.3c14.46-3.49,29-1.84,43.48-.17Z" transform="translate(-27.51 -33.42)"/><path class="cls-6" d="M210.56,173.5c-6.14-.22-11.82-2.2-17.31-4.52-15-6.34-30-12.81-44.94-19.28a229,229,0,0,0-30.25-11.12c-7.75-2.13-15.77-2.76-23.76-3.56a185.32,185.32,0,0,0-33.22-.51A51.87,51.87,0,0,0,48.65,137c-4.13,1.41-7.38,4.13-8.68,8.57A49.71,49.71,0,0,0,58.43,147a195.94,195.94,0,0,1,47.16,1.15c12.14,1.68,23.63,5.48,35,9.71,16.55,6.16,33.08,12.36,49.78,18.14,5.07,1.75,10.66,2.29,16.06,3.12a9.23,9.23,0,0,0,5-.7,4.33,4.33,0,0,0,2.17-3.14C213.66,174,212,173.56,210.56,173.5Z" transform="translate(-27.51 -33.42)"/><path class="cls-6" d="M58.79,168.07c20.06-2.82,40-1.29,59.84,2.45,8.82,1.66,17.54,3.78,26.25,5.88,7.4,1.79,14.74,3.8,22.08,5.8,10.85,3,21.81,5.37,33.09,6.07a54.84,54.84,0,0,0,9.57-.5c2.22-.24,3.55-1.53,3.35-4.3-2-.35-4-.76-6.09-1.06-4.1-.59-8.26-.87-12.29-1.73q-9.79-2.09-19.42-4.77c-13.61-3.82-27.11-8-40.73-11.72-8-2.2-16-4.27-24.18-5.78a233.46,233.46,0,0,0-34.73-3.31c-10.63-.36-21.11.46-31.24,3.52a35.07,35.07,0,0,0-15.2,9.7c-1.24,1.29-2.15,2.75-1.14,4.63,7.94-.41,15.63-1,23.05-3.22A52.37,52.37,0,0,1,58.79,168.07Z" transform="translate(-27.51 -33.42)"/><path class="cls-6" d="M81.21,125.29A243.9,243.9,0,0,1,114,133.07c13.61,4.2,27.2,8.53,40.05,14.54,11.27,5.27,22.35,10.86,33.62,16.14a102.9,102.9,0,0,0,14,5.54,34.89,34.89,0,0,0,9.87.92c1.93,0,4-.76,4.23-3.59-2.12-.24-4.21-.38-6.26-.73a48,48,0,0,1-14.82-5.65c-12-6.56-23.75-13.64-36.05-19.74-25.09-12.44-51.47-21.8-79.53-26.62a137.29,137.29,0,0,0-30-1.71,23.58,23.58,0,0,0-16.84,8c-1.25,1.35-2.55,2.75-2.6,5.2,5.82-.44,11.15-.62,16.39-1.3C57.86,122.53,69.56,123.4,81.21,125.29Z" transform="translate(-27.51 -33.42)"/><path class="cls-6" d="M239,193.74a44.41,44.41,0,0,0,.07-10,64.61,64.61,0,0,0-2.36-10.35,12.68,12.68,0,0,0-3.89-6.38,1,1,0,0,0-.31-.64,16.32,16.32,0,0,0-9.6-4.21,6.78,6.78,0,0,0-4.48.89,4.4,4.4,0,0,0-1.61,4.09,42.77,42.77,0,0,1,0,6.2c-.2,2.23-.56,4.44-.82,6.67a67.46,67.46,0,0,0,.08,12.71q.52,7.55,1.06,15.09a25,25,0,0,0-.35,3.75c.06.91,1,2,1.34,2.89.48,1.23.86,2.5,1.46,3.68a6.34,6.34,0,0,0,2.15,2.55,8.71,8.71,0,0,0,3.79.92c2.66.24,6.08.67,8.53-.65,2.29-1.23,2.82-3.86,3.06-6.22.36-3.56.63-7.13.95-10.69S238.65,197.18,239,193.74Z" transform="translate(-27.51 -33.42)"/><path class="cls-6" d="M238.62,175.71a1.13,1.13,0,0,0,1.36.77,35.9,35.9,0,0,1,15.13.22,35,35,0,0,1,7,2.42c1.6.75,3.54,1.65,5.3.91s2.22-2.79,1.67-4.5a11.39,11.39,0,0,0-4-5c-3.74-3-8-5.57-12.74-6.47-5.68-1.07-11.62-.3-17.31.42a1.17,1.17,0,0,0-1,1,1.11,1.11,0,0,0-.27,1.73A20.63,20.63,0,0,1,238.62,175.71Z" transform="translate(-27.51 -33.42)"/><path class="cls-6" d="M240.35,188a1.13,1.13,0,0,0,1.11,1.11q6.72-.39,13.45-.4,3.3,0,6.6.1c1.06,0,2.12.06,3.18.11a6.47,6.47,0,0,0,2.52-.17,3,3,0,0,0,1.73-3.55c-.41-1.74-2-3-3.44-3.95a31.24,31.24,0,0,0-11.07-4,43.65,43.65,0,0,0-13.92-.39,2.69,2.69,0,0,0-1,2.12A76.83,76.83,0,0,1,240.35,188Z" transform="translate(-27.51 -33.42)"/><path class="cls-6" d="M263.22,190.41c-2.15-.34-4.3-.61-6.47-.81a92.81,92.81,0,0,0-15.28-.12,1.19,1.19,0,0,0-.43.12.92.92,0,0,0-1.16.76,55.61,55.61,0,0,0-.94,9.28,1.12,1.12,0,0,0,1.11,1.11c4.57,0,9.15-.21,13.71-.62,2.27-.2,4.54-.46,6.8-.76a62.31,62.31,0,0,0,6.39-1,4.47,4.47,0,0,0,3.62-3.15,3.29,3.29,0,0,0-1.9-3.55A17.8,17.8,0,0,0,263.22,190.41Z" transform="translate(-27.51 -33.42)"/><path class="cls-6" d="M269.64,198.75a112.78,112.78,0,0,1-29.32,2.45,1,1,0,0,0-1,1.48.92.92,0,0,0-.2.47c-.21,1.4-.43,2.81-.64,4.21a1.12,1.12,0,0,0,1.07,1.4,76.91,76.91,0,0,0,17.94-2.17,74.61,74.61,0,0,0,8.62-2.66c1.88-.71,5.07-1.55,4.92-4.12A1.12,1.12,0,0,0,269.64,198.75Z" transform="translate(-27.51 -33.42)"/><path class="cls-6" d="M273,202.84a1.05,1.05,0,0,0-.77-.25.87.87,0,0,0-1.23-.09c-4.46,3.24-9.76,4.85-15.15,5.73-3.12.5-6.27.77-9.42,1-1.46.13-2.93.26-4.39.42-1.14.12-2.36.24-3,1.32a12.59,12.59,0,0,0-1,3.58c-.25,1.08-.56,2.3.11,3.3,1.31,2,5.15,1.44,7.11,1.22,5.88-.67,11.44-3.26,16.92-5.35a24.1,24.1,0,0,0,4.45-1.87,21.46,21.46,0,0,0,3.18-2.85C270.93,207.92,275.36,204.73,273,202.84Z" transform="translate(-27.51 -33.42)"/></svg>