<svg width="59" height="59" viewBox="0 0 59 59" fill="none" xmlns="http://www.w3.org/2000/svg">
<path d="M58.9797 29.4842L32.0914 0V17.6615H28.9679C21.2306 17.6615 13.956 20.6747 8.48458 26.146C3.0132 31.6174 0 38.892 0 46.6299V59L5.16034 53.3459C12.0631 45.7831 21.8617 41.4083 32.0914 41.3088V58.9689L58.9797 29.4842ZM3.45748 50.1116V46.6299C3.45748 39.8157 6.11102 33.409 10.9293 28.5907C15.7475 23.7725 22.1538 21.1189 28.9679 21.1189H35.5485V8.92211L54.301 29.4842L35.5485 50.0468V37.85H32.4466C21.5335 37.85 11.0391 42.3041 3.45748 50.1116Z" fill="#888383"/>
</svg>
