<svg width="30" height="30" viewBox="0 0 30 30" fill="none" xmlns="http://www.w3.org/2000/svg">
<path d="M11.6667 3.33334H5.00004C4.55801 3.33334 4.13409 3.50894 3.82153 3.8215C3.50897 4.13406 3.33337 4.55798 3.33337 5.00001V11.6667C3.33337 12.1087 3.50897 12.5326 3.82153 12.8452C4.13409 13.1577 4.55801 13.3333 5.00004 13.3333H11.6667C12.1087 13.3333 12.5327 13.1577 12.8452 12.8452C13.1578 12.5326 13.3334 12.1087 13.3334 11.6667V5.00001C13.3334 4.55798 13.1578 4.13406 12.8452 3.8215C12.5327 3.50894 12.1087 3.33334 11.6667 3.33334ZM5.00004 11.6667V5.00001H11.6667V11.6667H5.00004Z" fill="black"/>
<path d="M25 3.33334H18.3333C17.8913 3.33334 17.4673 3.50894 17.1548 3.8215C16.8422 4.13406 16.6666 4.55798 16.6666 5.00001V11.6667C16.6666 12.1087 16.8422 12.5326 17.1548 12.8452C17.4673 13.1577 17.8913 13.3333 18.3333 13.3333H25C25.442 13.3333 25.8659 13.1577 26.1785 12.8452C26.491 12.5326 26.6666 12.1087 26.6666 11.6667V5.00001C26.6666 4.55798 26.491 4.13406 26.1785 3.8215C25.8659 3.50894 25.442 3.33334 25 3.33334ZM18.3333 11.6667V5.00001H25V11.6667H18.3333Z" fill="black"/>
<path d="M11.6667 16.6667H5.00004C4.55801 16.6667 4.13409 16.8423 3.82153 17.1548C3.50897 17.4674 3.33337 17.8913 3.33337 18.3333V25C3.33337 25.442 3.50897 25.8659 3.82153 26.1785C4.13409 26.4911 4.55801 26.6667 5.00004 26.6667H11.6667C12.1087 26.6667 12.5327 26.4911 12.8452 26.1785C13.1578 25.8659 13.3334 25.442 13.3334 25V18.3333C13.3334 17.8913 13.1578 17.4674 12.8452 17.1548C12.5327 16.8423 12.1087 16.6667 11.6667 16.6667ZM5.00004 25V18.3333H11.6667V25H5.00004Z" fill="black"/>
<path d="M25 16.6667H18.3333C17.8913 16.6667 17.4673 16.8423 17.1548 17.1548C16.8422 17.4674 16.6666 17.8913 16.6666 18.3333V25C16.6666 25.442 16.8422 25.8659 17.1548 26.1785C17.4673 26.4911 17.8913 26.6667 18.3333 26.6667H25C25.442 26.6667 25.8659 26.4911 26.1785 26.1785C26.491 25.8659 26.6666 25.442 26.6666 25V18.3333C26.6666 17.8913 26.491 17.4674 26.1785 17.1548C25.8659 16.8423 25.442 16.6667 25 16.6667ZM18.3333 25V18.3333H25V25H18.3333Z" fill="black"/>
</svg>
